<svg version="1.1" viewBox="0.0 0.0 960.0 540.0" fill="none" stroke="none" stroke-linecap="square" stroke-miterlimit="10" xmlns:xlink="http://www.w3.org/1999/xlink" xmlns="http://www.w3.org/2000/svg"><clipPath id="g1e2dd2a5d9a_0_18.0"><path d="m0 0l960.0 0l0 540.0l-960.0 0l0 -540.0z" clip-rule="nonzero"/></clipPath><g clip-path="url(#g1e2dd2a5d9a_0_18.0)"><path fill="#ffffff" d="m0 0l960.0 0l0 540.0l-960.0 0z" fill-rule="evenodd"/><path fill="#eeeeee" d="m369.5223 49.15117l0 0c0 -6.91457 5.605377 -12.519936 12.519928 -12.519936l66.298706 0c3.3204956 0 6.505005 1.3190613 8.852936 3.6670036c2.3479614 2.3479462 3.6670227 5.53244 3.6670227 8.852932l0 50.07824c0 6.914566 -5.605377 12.519936 -12.5199585 12.519936l-66.298706 0l0 0c-6.914551 0 -12.519928 -5.6053696 -12.519928 -12.519936z" fill-rule="evenodd"/><path stroke="#ff0000" stroke-width="2.0" stroke-linejoin="round" stroke-linecap="butt" d="m369.5223 49.15117l0 0c0 -6.91457 5.605377 -12.519936 12.519928 -12.519936l66.298706 0c3.3204956 0 6.505005 1.3190613 8.852936 3.6670036c2.3479614 2.3479462 3.6670227 5.53244 3.6670227 8.852932l0 50.07824c0 6.914566 -5.605377 12.519936 -12.5199585 12.519936l-66.298706 0l0 0c-6.914551 0 -12.519928 -5.6053696 -12.519928 -12.519936z" fill-rule="evenodd"/><path fill="#ff0000" d="m397.51157 70.11028l0 -13.359371l1.765625 0l0 5.484375l6.9375 0l0 -5.484375l1.765625 0l0 13.359371l-1.765625 0l0 -6.296871l-6.9375 0l0 6.296871l-1.765625 0zm12.816681 -4.296875l1.65625 -0.140625q0.125 1.0 0.546875 1.640625q0.4375 0.640625 1.34375 1.046875q0.921875 0.390625 2.0625 0.390625q1.0 0 1.78125 -0.296875q0.78125 -0.296875 1.15625 -0.8125q0.375 -0.53125 0.375 -1.15625q0 -0.625 -0.375 -1.09375q-0.359375 -0.46875 -1.1875 -0.796875q-0.546875 -0.203125 -2.390625 -0.6406212q-1.828125 -0.453125 -2.5625 -0.84375q-0.96875 -0.5 -1.4375 -1.234375q-0.46875 -0.75 -0.46875 -1.671875q0 -1.0 0.578125 -1.875q0.578125 -0.890625 1.671875 -1.34375q1.109375 -0.453125 2.453125 -0.453125q1.484375 0 2.609375 0.484375q1.140625 0.46875 1.75 1.40625q0.609375 0.921875 0.65625 2.09375l-1.6875 0.125q-0.140625 -1.265625 -0.9375 -1.90625q-0.78125 -0.65625 -2.3125 -0.65625q-1.609375 0 -2.34375 0.59375q-0.734375 0.59375 -0.734375 1.421875q0 0.71875 0.53125 1.171875q0.5 0.46875 2.65625 0.96875q2.15625 0.484375 2.953125 0.84375q1.171875 0.53125 1.71875 1.3593712q0.5625 0.828125 0.5625 1.90625q0 1.0625 -0.609375 2.015625q-0.609375 0.9375 -1.75 1.46875q-1.140625 0.515625 -2.578125 0.515625q-1.8125 0 -3.046875 -0.53125q-1.21875 -0.53125 -1.921875 -1.59375q-0.6875 -1.0625 -0.71875 -2.40625zm16.849823 4.296875l-5.171875 -13.359371l1.921875 0l3.46875 9.703121q0.421875 1.171875 0.703125 2.1875q0.3125 -1.09375 0.71875 -2.1875l3.609375 -9.703121l1.796875 0l-5.234375 13.359371l-1.8125 0z" fill-rule="nonzero"/><path fill="#ff0000" d="m394.84375 92.11028l0 -13.359375l5.046875 0q1.328125 0 2.03125 0.125q0.96875 0.171875 1.640625 0.640625q0.671875 0.453125 1.078125 1.28125q0.40625 0.828125 0.40625 1.828125q0 1.703125 -1.09375 2.890625q-1.078125 1.171875 -3.921875 1.171875l-3.421875 0l0 5.421875l-1.765625 0zm1.765625 -7.0l3.453125 0q1.71875 0 2.4375 -0.640625q0.71875 -0.640625 0.71875 -1.796875q0 -0.84375 -0.421875 -1.4375q-0.421875 -0.59375 -1.125 -0.78125q-0.4375 -0.125 -1.640625 -0.125l-3.421875 0l0 4.78125zm16.787323 5.8125q-0.921875 0.765625 -1.765625 1.09375q-0.828125 0.3125 -1.796875 0.3125q-1.59375 0 -2.453125 -0.78125q-0.859375 -0.78125 -0.859375 -1.984375q0 -0.71875 0.328125 -1.296875q0.328125 -0.59375 0.84375 -0.9375q0.53125 -0.359375 1.1875 -0.546875q0.46875 -0.125 1.453125 -0.25q1.984375 -0.234375 2.921875 -0.5625q0.015625 -0.34375 0.015625 -0.421875q0 -1.0 -0.46875 -1.421875q-0.625 -0.546875 -1.875 -0.546875q-1.15625 0 -1.703125 0.40625q-0.546875 0.40625 -0.8125 1.421875l-1.609375 -0.21875q0.21875 -1.015625 0.71875 -1.640625q0.5 -0.640625 1.453125 -0.984375q0.953125 -0.34375 2.1875 -0.34375q1.25 0 2.015625 0.296875q0.78125 0.28125 1.140625 0.734375q0.375 0.4375 0.515625 1.109375q0.078125 0.421875 0.078125 1.515625l0 2.1875q0 2.28125 0.109375 2.890625q0.109375 0.59375 0.40625 1.15625l-1.703125 0q-0.265625 -0.515625 -0.328125 -1.1875zm-0.140625 -3.671875q-0.890625 0.375 -2.671875 0.625q-1.015625 0.140625 -1.4375 0.328125q-0.421875 0.1875 -0.65625 0.53125q-0.21875 0.34375 -0.21875 0.78125q0 0.65625 0.5 1.09375q0.5 0.4375 1.453125 0.4375q0.9375 0 1.671875 -0.40625q0.75 -0.421875 1.09375 -1.140625q0.265625 -0.5625 0.265625 -1.640625l0 -0.609375zm3.891327 5.65625l1.59375 0.234375q0.109375 0.75 0.5625 1.078125q0.609375 0.453125 1.671875 0.453125q1.140625 0 1.75 -0.453125q0.625 -0.453125 0.84375 -1.265625q0.125 -0.5 0.109375 -2.109375q-1.0625 1.265625 -2.671875 1.265625q-2.0 0 -3.09375 -1.4375q-1.09375 -1.4375 -1.09375 -3.453125q0 -1.390625 0.5 -2.5625q0.515625 -1.171875 1.453125 -1.796875q0.953125 -0.640625 2.25 -0.640625q1.703125 0 2.8125 1.375l0 -1.15625l1.515625 0l0 8.359375q0 2.265625 -0.46875 3.203125q-0.453125 0.9375 -1.453125 1.484375q-0.984375 0.546875 -2.453125 0.546875q-1.71875 0 -2.796875 -0.78125q-1.0625 -0.765625 -1.03125 -2.34375zm1.359375 -5.8125q0 1.90625 0.75 2.78125q0.765625 0.875 1.90625 0.875q1.125 0 1.890625 -0.859375q0.765625 -0.875 0.765625 -2.734375q0 -1.78125 -0.796875 -2.671875q-0.78125 -0.90625 -1.890625 -0.90625q-1.09375 0 -1.859375 0.890625q-0.765625 0.875 -0.765625 2.625zm15.953857 1.90625l1.6875 0.203125q-0.40625 1.484375 -1.484375 2.3125q-1.078125 0.8125 -2.765625 0.8125q-2.125 0 -3.375 -1.296875q-1.234375 -1.3125 -1.234375 -3.671875q0 -2.453125 1.25 -3.796875q1.265625 -1.34375 3.265625 -1.34375q1.9375 0 3.15625 1.328125q1.234375 1.3125 1.234375 3.703125q0 0.15625 0 0.4375l-7.21875 0q0.09375 1.59375 0.90625 2.453125q0.8125 0.84375 2.015625 0.84375q0.90625 0 1.546875 -0.46875q0.640625 -0.484375 1.015625 -1.515625zm-5.390625 -2.65625l5.40625 0q-0.109375 -1.21875 -0.625 -1.828125q-0.78125 -0.953125 -2.03125 -0.953125q-1.125 0 -1.90625 0.765625q-0.765625 0.75 -0.84375 2.015625z" fill-rule="nonzero"/><path fill="#eeeeee" d="m369.53543 176.78503l0 0c0 -6.9145813 5.605377 -12.519943 12.519928 -12.519943l66.29874 0c3.320465 0 6.5049744 1.3190613 8.852905 3.6670074c2.3479614 2.3479462 3.6670227 5.53244 3.6670227 8.852936l0 50.07823c0 6.914566 -5.605377 12.519943 -12.519928 12.519943l-66.29874 0l0 0c-6.914551 0 -12.519928 -5.605377 -12.519928 -12.519943z" fill-rule="evenodd"/><path stroke="#ff9900" stroke-width="2.0" stroke-linejoin="round" stroke-linecap="butt" d="m369.53543 176.78503l0 0c0 -6.9145813 5.605377 -12.519943 12.519928 -12.519943l66.29874 0c3.320465 0 6.5049744 1.3190613 8.852905 3.6670074c2.3479614 2.3479462 3.6670227 5.53244 3.6670227 8.852936l0 50.07823c0 6.914566 -5.605377 12.519943 -12.519928 12.519943l-66.29874 0l0 0c-6.914551 0 -12.519928 -5.605377 -12.519928 -12.519943z" fill-rule="evenodd"/><path fill="#ff9900" d="m396.4595 197.74414l0 -13.359375l5.921875 0q1.78125 0 2.703125 0.359375q0.9375 0.359375 1.484375 1.28125q0.5625 0.90625 0.5625 2.015625q0 1.40625 -0.921875 2.390625q-0.921875 0.96875 -2.84375 1.234375q0.703125 0.34375 1.078125 0.671875q0.765625 0.703125 1.453125 1.765625l2.328125 3.640625l-2.21875 0l-1.765625 -2.78125q-0.78125 -1.203125 -1.28125 -1.828125q-0.5 -0.640625 -0.90625 -0.890625q-0.390625 -0.265625 -0.796875 -0.359375q-0.296875 -0.078125 -0.984375 -0.078125l-2.046875 0l0 5.9375l-1.765625 0zm1.765625 -7.453125l3.796875 0q1.21875 0 1.890625 -0.25q0.6875 -0.265625 1.046875 -0.8125q0.359375 -0.546875 0.359375 -1.1875q0 -0.953125 -0.6875 -1.5625q-0.6875 -0.609375 -2.1875 -0.609375l-4.21875 0l0 4.421875zm17.926056 2.21875l0 -1.578125l5.65625 0l0 4.953125q-1.296875 1.046875 -2.6875 1.578125q-1.375 0.515625 -2.84375 0.515625q-1.96875 0 -3.578125 -0.84375q-1.609375 -0.84375 -2.421875 -2.4375q-0.8125 -1.59375 -0.8125 -3.5625q0 -1.953125 0.8125 -3.640625q0.8125 -1.6875 2.34375 -2.5q1.53125 -0.828125 3.515625 -0.828125q1.453125 0 2.625 0.46875q1.171875 0.46875 1.828125 1.3125q0.671875 0.828125 1.015625 2.171875l-1.59375 0.4375q-0.296875 -1.015625 -0.75 -1.59375q-0.4375 -0.59375 -1.265625 -0.9375q-0.828125 -0.34375 -1.84375 -0.34375q-1.203125 0 -2.09375 0.375q-0.890625 0.359375 -1.4375 0.96875q-0.53125 0.59375 -0.828125 1.3125q-0.515625 1.234375 -0.515625 2.6875q0 1.78125 0.609375 2.984375q0.625 1.203125 1.796875 1.796875q1.171875 0.578125 2.5 0.578125q1.140625 0 2.234375 -0.4375q1.09375 -0.453125 1.65625 -0.953125l0 -2.484375l-3.921875 0zm8.183319 5.234375l0 -13.359375l5.015625 0q1.53125 0 2.453125 0.40625q0.921875 0.40625 1.4375 1.25q0.53125 0.84375 0.53125 1.765625q0 0.859375 -0.46875 1.625q-0.453125 0.75 -1.390625 1.203125q1.203125 0.359375 1.859375 1.21875q0.65625 0.859375 0.65625 2.015625q0 0.9375 -0.40625 1.75q-0.390625 0.796875 -0.984375 1.234375q-0.578125 0.4375 -1.453125 0.671875q-0.875 0.21875 -2.15625 0.21875l-5.09375 0zm1.78125 -7.75l2.875 0q1.1875 0 1.6875 -0.140625q0.671875 -0.203125 1.015625 -0.671875q0.34375 -0.46875 0.34375 -1.171875q0 -0.65625 -0.328125 -1.15625q-0.3125 -0.515625 -0.90625 -0.703125q-0.59375 -0.1875 -2.03125 -0.1875l-2.65625 0l0 4.03125zm0 6.171875l3.3125 0q0.859375 0 1.203125 -0.0625q0.609375 -0.109375 1.015625 -0.359375q0.421875 -0.265625 0.6875 -0.75q0.265625 -0.484375 0.265625 -1.125q0 -0.75 -0.390625 -1.296875q-0.375 -0.546875 -1.0625 -0.765625q-0.671875 -0.234375 -1.953125 -0.234375l-3.078125 0l0 4.59375z" fill-rule="nonzero"/><path fill="#ff9900" d="m394.85687 219.74414l0 -13.359375l5.046875 0q1.328125 0 2.03125 0.125q0.96875 0.171875 1.640625 0.640625q0.671875 0.453125 1.078125 1.28125q0.40625 0.828125 0.40625 1.828125q0 1.703125 -1.09375 2.890625q-1.078125 1.171875 -3.921875 1.171875l-3.421875 0l0 5.421875l-1.765625 0zm1.765625 -7.0l3.453125 0q1.71875 0 2.4375 -0.640625q0.71875 -0.640625 0.71875 -1.796875q0 -0.84375 -0.421875 -1.4375q-0.421875 -0.59375 -1.125 -0.78125q-0.4375 -0.125 -1.640625 -0.125l-3.421875 0l0 4.78125zm16.787323 5.8125q-0.921875 0.765625 -1.765625 1.09375q-0.828125 0.3125 -1.796875 0.3125q-1.59375 0 -2.453125 -0.78125q-0.859375 -0.78125 -0.859375 -1.984375q0 -0.71875 0.328125 -1.296875q0.328125 -0.59375 0.84375 -0.9375q0.53125 -0.359375 1.1875 -0.546875q0.46875 -0.125 1.453125 -0.25q1.984375 -0.234375 2.921875 -0.5625q0.015625 -0.34375 0.015625 -0.421875q0 -1.0 -0.46875 -1.421875q-0.625 -0.546875 -1.875 -0.546875q-1.15625 0 -1.703125 0.40625q-0.546875 0.40625 -0.8125 1.421875l-1.609375 -0.21875q0.21875 -1.015625 0.71875 -1.640625q0.5 -0.640625 1.453125 -0.984375q0.953125 -0.34375 2.1875 -0.34375q1.25 0 2.015625 0.296875q0.78125 0.28125 1.140625 0.734375q0.375 0.4375 0.515625 1.109375q0.078125 0.421875 0.078125 1.515625l0 2.1875q0 2.28125 0.109375 2.890625q0.109375 0.59375 0.40625 1.15625l-1.703125 0q-0.265625 -0.515625 -0.328125 -1.1875zm-0.140625 -3.671875q-0.890625 0.375 -2.671875 0.625q-1.015625 0.140625 -1.4375 0.328125q-0.421875 0.1875 -0.65625 0.53125q-0.21875 0.34375 -0.21875 0.78125q0 0.65625 0.5 1.09375q0.5 0.4375 1.453125 0.4375q0.9375 0 1.671875 -0.40625q0.75 -0.421875 1.09375 -1.140625q0.265625 -0.5625 0.265625 -1.640625l0 -0.609375zm3.891327 5.65625l1.59375 0.234375q0.109375 0.75 0.5625 1.078125q0.609375 0.453125 1.671875 0.453125q1.140625 0 1.75 -0.453125q0.625 -0.453125 0.84375 -1.265625q0.125 -0.5 0.109375 -2.109375q-1.0625 1.265625 -2.671875 1.265625q-2.0 0 -3.09375 -1.4375q-1.09375 -1.4375 -1.09375 -3.453125q0 -1.390625 0.5 -2.5625q0.515625 -1.171875 1.453125 -1.796875q0.953125 -0.640625 2.25 -0.640625q1.703125 0 2.8125 1.375l0 -1.15625l1.515625 0l0 8.359375q0 2.265625 -0.46875 3.203125q-0.453125 0.9375 -1.453125 1.484375q-0.984375 0.546875 -2.453125 0.546875q-1.71875 0 -2.796875 -0.78125q-1.0625 -0.765625 -1.03125 -2.34375zm1.359375 -5.8125q0 1.90625 0.75 2.78125q0.765625 0.875 1.90625 0.875q1.125 0 1.890625 -0.859375q0.765625 -0.875 0.765625 -2.734375q0 -1.78125 -0.796875 -2.671875q-0.78125 -0.90625 -1.890625 -0.90625q-1.09375 0 -1.859375 0.890625q-0.765625 0.875 -0.765625 2.625zm15.953857 1.90625l1.6875 0.203125q-0.40625 1.484375 -1.484375 2.3125q-1.078125 0.8125 -2.765625 0.8125q-2.125 0 -3.375 -1.296875q-1.234375 -1.3125 -1.234375 -3.671875q0 -2.453125 1.25 -3.796875q1.265625 -1.34375 3.265625 -1.34375q1.9375 0 3.15625 1.328125q1.234375 1.3125 1.234375 3.703125q0 0.15625 0 0.4375l-7.21875 0q0.09375 1.59375 0.90625 2.453125q0.8125 0.84375 2.015625 0.84375q0.90625 0 1.546875 -0.46875q0.640625 -0.484375 1.015625 -1.515625zm-5.390625 -2.65625l5.40625 0q-0.109375 -1.21875 -0.625 -1.828125q-0.78125 -0.953125 -2.03125 -0.953125q-1.125 0 -1.90625 0.765625q-0.765625 0.75 -0.84375 2.015625z" fill-rule="nonzero"/><path fill="#eeeeee" d="m369.5223 304.41888l0 0c0 -6.9145813 5.605377 -12.519928 12.519928 -12.519928l66.298706 0c3.3204956 0 6.505005 1.3190613 8.852936 3.6669922c2.3479614 2.3479614 3.6670227 5.53244 3.6670227 8.852936l0 50.078247c0 6.914551 -5.605377 12.519928 -12.5199585 12.519928l-66.298706 0l0 0c-6.914551 0 -12.519928 -5.605377 -12.519928 -12.519928z" fill-rule="evenodd"/><path stroke="#6aa84f" stroke-width="2.0" stroke-linejoin="round" stroke-linecap="butt" d="m369.5223 304.41888l0 0c0 -6.9145813 5.605377 -12.519928 12.519928 -12.519928l66.298706 0c3.3204956 0 6.505005 1.3190613 8.852936 3.6669922c2.3479614 2.3479614 3.6670227 5.53244 3.6670227 8.852936l0 50.078247c0 6.914551 -5.605377 12.519928 -12.5199585 12.519928l-66.298706 0l0 0c-6.914551 0 -12.519928 -5.605377 -12.519928 -12.519928z" fill-rule="evenodd"/><path fill="#6aa84f" d="m395.90045 325.378l0 -13.359375l4.609375 0q1.546875 0 2.375 0.203125q1.140625 0.25 1.953125 0.953125q1.0625 0.890625 1.578125 2.28125q0.53125 1.390625 0.53125 3.171875q0 1.515625 -0.359375 2.703125q-0.359375 1.171875 -0.921875 1.9375q-0.546875 0.765625 -1.203125 1.21875q-0.65625 0.4375 -1.59375 0.671875q-0.9375 0.21875 -2.140625 0.21875l-4.828125 0zm1.765625 -1.578125l2.859375 0q1.3125 0 2.0625 -0.234375q0.75 -0.25 1.203125 -0.703125q0.625 -0.625 0.96875 -1.6875q0.359375 -1.0625 0.359375 -2.578125q0 -2.09375 -0.6875 -3.21875q-0.6875 -1.125 -1.671875 -1.5q-0.703125 -0.28125 -2.28125 -0.28125l-2.8125 0l0 10.203125zm11.660431 1.578125l0 -13.359375l2.65625 0l3.15625 9.453125q0.4375 1.328125 0.640625 1.984375q0.234375 -0.734375 0.703125 -2.140625l3.203125 -9.296875l2.375 0l0 13.359375l-1.703125 0l0 -11.171875l-3.875 11.171875l-1.59375 0l-3.859375 -11.375l0 11.375l-1.703125 0zm14.228302 0l5.171875 -6.953125l-4.5625 -6.40625l2.109375 0l2.421875 3.4375q0.75 1.0625 1.078125 1.625q0.4375 -0.71875 1.046875 -1.515625l2.6875 -3.546875l1.921875 0l-4.6875 6.296875l5.0625 7.0625l-2.1875 0l-3.359375 -4.765625q-0.28125 -0.40625 -0.59375 -0.890625q-0.4375 0.734375 -0.625 1.0l-3.359375 4.65625l-2.125 0z" fill-rule="nonzero"/><path fill="#6aa84f" d="m394.84375 347.378l0 -13.359375l5.046875 0q1.328125 0 2.03125 0.125q0.96875 0.171875 1.640625 0.640625q0.671875 0.453125 1.078125 1.28125q0.40625 0.828125 0.40625 1.828125q0 1.703125 -1.09375 2.890625q-1.078125 1.171875 -3.921875 1.171875l-3.421875 0l0 5.421875l-1.765625 0zm1.765625 -7.0l3.453125 0q1.71875 0 2.4375 -0.640625q0.71875 -0.640625 0.71875 -1.796875q0 -0.84375 -0.421875 -1.4375q-0.421875 -0.59375 -1.125 -0.78125q-0.4375 -0.125 -1.640625 -0.125l-3.421875 0l0 4.78125zm16.787323 5.8125q-0.921875 0.765625 -1.765625 1.09375q-0.828125 0.3125 -1.796875 0.3125q-1.59375 0 -2.453125 -0.78125q-0.859375 -0.78125 -0.859375 -1.984375q0 -0.71875 0.328125 -1.296875q0.328125 -0.59375 0.84375 -0.9375q0.53125 -0.359375 1.1875 -0.546875q0.46875 -0.125 1.453125 -0.25q1.984375 -0.234375 2.921875 -0.5625q0.015625 -0.34375 0.015625 -0.421875q0 -1.0 -0.46875 -1.421875q-0.625 -0.546875 -1.875 -0.546875q-1.15625 0 -1.703125 0.40625q-0.546875 0.40625 -0.8125 1.421875l-1.609375 -0.21875q0.21875 -1.015625 0.71875 -1.640625q0.5 -0.640625 1.453125 -0.984375q0.953125 -0.34375 2.1875 -0.34375q1.25 0 2.015625 0.296875q0.78125 0.28125 1.140625 0.734375q0.375 0.4375 0.515625 1.109375q0.078125 0.421875 0.078125 1.515625l0 2.1875q0 2.28125 0.109375 2.890625q0.109375 0.59375 0.40625 1.15625l-1.703125 0q-0.265625 -0.515625 -0.328125 -1.1875zm-0.140625 -3.671875q-0.890625 0.375 -2.671875 0.625q-1.015625 0.140625 -1.4375 0.328125q-0.421875 0.1875 -0.65625 0.53125q-0.21875 0.34375 -0.21875 0.78125q0 0.65625 0.5 1.09375q0.5 0.4375 1.453125 0.4375q0.9375 0 1.671875 -0.40625q0.75 -0.421875 1.09375 -1.140625q0.265625 -0.5625 0.265625 -1.640625l0 -0.609375zm3.891327 5.65625l1.59375 0.234375q0.109375 0.75 0.5625 1.078125q0.609375 0.453125 1.671875 0.453125q1.140625 0 1.75 -0.453125q0.625 -0.453125 0.84375 -1.265625q0.125 -0.5 0.109375 -2.109375q-1.0625 1.265625 -2.671875 1.265625q-2.0 0 -3.09375 -1.4375q-1.09375 -1.4375 -1.09375 -3.453125q0 -1.390625 0.5 -2.5625q0.515625 -1.171875 1.453125 -1.796875q0.953125 -0.640625 2.25 -0.640625q1.703125 0 2.8125 1.375l0 -1.15625l1.515625 0l0 8.359375q0 2.265625 -0.46875 3.203125q-0.453125 0.9375 -1.453125 1.484375q-0.984375 0.546875 -2.453125 0.546875q-1.71875 0 -2.796875 -0.78125q-1.0625 -0.765625 -1.03125 -2.34375zm1.359375 -5.8125q0 1.90625 0.75 2.78125q0.765625 0.875 1.90625 0.875q1.125 0 1.890625 -0.859375q0.765625 -0.875 0.765625 -2.734375q0 -1.78125 -0.796875 -2.671875q-0.78125 -0.90625 -1.890625 -0.90625q-1.09375 0 -1.859375 0.890625q-0.765625 0.875 -0.765625 2.625zm15.953857 1.90625l1.6875 0.203125q-0.40625 1.484375 -1.484375 2.3125q-1.078125 0.8125 -2.765625 0.8125q-2.125 0 -3.375 -1.296875q-1.234375 -1.3125 -1.234375 -3.671875q0 -2.453125 1.25 -3.796875q1.265625 -1.34375 3.265625 -1.34375q1.9375 0 3.15625 1.328125q1.234375 1.3125 1.234375 3.703125q0 0.15625 0 0.4375l-7.21875 0q0.09375 1.59375 0.90625 2.453125q0.8125 0.84375 2.015625 0.84375q0.90625 0 1.546875 -0.46875q0.640625 -0.484375 1.015625 -1.515625zm-5.390625 -2.65625l5.40625 0q-0.109375 -1.21875 -0.625 -1.828125q-0.78125 -0.953125 -2.03125 -0.953125q-1.125 0 -1.90625 0.765625q-0.765625 0.75 -0.84375 2.015625z" fill-rule="nonzero"/><path fill="#eeeeee" d="m369.5223 432.05405l0 0c0 -6.914551 5.605377 -12.519928 12.519928 -12.519928l66.298706 0c3.3204956 0 6.505005 1.3190613 8.852936 3.6669922c2.3479614 2.3479614 3.6670227 5.53244 3.6670227 8.852936l0 50.078247c0 6.9145813 -5.605377 12.519928 -12.5199585 12.519928l-66.298706 0l0 0c-6.914551 0 -12.519928 -5.6053467 -12.519928 -12.519928z" fill-rule="evenodd"/><path stroke="#0000ff" stroke-width="2.0" stroke-linejoin="round" stroke-linecap="butt" d="m369.5223 432.05405l0 0c0 -6.914551 5.605377 -12.519928 12.519928 -12.519928l66.298706 0c3.3204956 0 6.505005 1.3190613 8.852936 3.6669922c2.3479614 2.3479614 3.6670227 5.53244 3.6670227 8.852936l0 50.078247c0 6.9145813 -5.605377 12.519928 -12.5199585 12.519928l-66.298706 0l0 0c-6.914551 0 -12.519928 -5.6053467 -12.519928 -12.519928z" fill-rule="evenodd"/><path fill="#0000ff" d="m396.93436 453.01318l0 -13.359375l5.046875 0q1.328125 0 2.03125 0.125q0.96875 0.171875 1.640625 0.640625q0.671875 0.453125 1.078125 1.28125q0.40625 0.828125 0.40625 1.828125q0 1.703125 -1.09375 2.890625q-1.078125 1.171875 -3.921875 1.171875l-3.421875 0l0 5.421875l-1.765625 0zm1.765625 -7.0l3.453125 0q1.71875 0 2.4375 -0.640625q0.71875 -0.640625 0.71875 -1.796875q0 -0.84375 -0.421875 -1.4375q-0.421875 -0.59375 -1.125 -0.78125q-0.4375 -0.125 -1.640625 -0.125l-3.421875 0l0 4.78125zm10.677948 7.0l0 -13.359375l4.609375 0q1.546875 0 2.375 0.203125q1.140625 0.25 1.953125 0.953125q1.0625 0.890625 1.578125 2.28125q0.53125 1.390625 0.53125 3.171875q0 1.515625 -0.359375 2.703125q-0.359375 1.171875 -0.921875 1.9375q-0.546875 0.765625 -1.203125 1.21875q-0.65625 0.4375 -1.59375 0.671875q-0.9375 0.21875 -2.140625 0.21875l-4.828125 0zm1.765625 -1.578125l2.859375 0q1.3125 0 2.0625 -0.234375q0.75 -0.25 1.203125 -0.703125q0.625 -0.625 0.96875 -1.6875q0.359375 -1.0625 0.359375 -2.578125q0 -2.09375 -0.6875 -3.21875q-0.6875 -1.125 -1.671875 -1.5q-0.703125 -0.28125 -2.28125 -0.28125l-2.8125 0l0 10.203125zm21.238586 -3.109375l1.765625 0.453125q-0.5625 2.171875 -2.0 3.328125q-1.4375 1.140625 -3.53125 1.140625q-2.15625 0 -3.515625 -0.875q-1.34375 -0.890625 -2.0625 -2.546875q-0.703125 -1.671875 -0.703125 -3.59375q0 -2.078125 0.796875 -3.625q0.796875 -1.5625 2.265625 -2.359375q1.484375 -0.8125 3.25 -0.8125q2.0 0 3.359375 1.015625q1.375 1.015625 1.90625 2.875l-1.734375 0.40625q-0.46875 -1.453125 -1.359375 -2.109375q-0.875 -0.671875 -2.203125 -0.671875q-1.546875 0 -2.578125 0.734375q-1.03125 0.734375 -1.453125 1.984375q-0.421875 1.234375 -0.421875 2.5625q0 1.703125 0.5 2.96875q0.5 1.265625 1.546875 1.90625q1.046875 0.625 2.265625 0.625q1.484375 0 2.515625 -0.859375q1.03125 -0.859375 1.390625 -2.546875z" fill-rule="nonzero"/><path fill="#0000ff" d="m394.84375 475.01318l0 -13.359375l5.046875 0q1.328125 0 2.03125 0.125q0.96875 0.171875 1.640625 0.640625q0.671875 0.453125 1.078125 1.28125q0.40625 0.828125 0.40625 1.828125q0 1.703125 -1.09375 2.890625q-1.078125 1.171875 -3.921875 1.171875l-3.421875 0l0 5.421875l-1.765625 0zm1.765625 -7.0l3.453125 0q1.71875 0 2.4375 -0.640625q0.71875 -0.640625 0.71875 -1.796875q0 -0.84375 -0.421875 -1.4375q-0.421875 -0.59375 -1.125 -0.78125q-0.4375 -0.125 -1.640625 -0.125l-3.421875 0l0 4.78125zm16.787323 5.8125q-0.921875 0.765625 -1.765625 1.09375q-0.828125 0.3125 -1.796875 0.3125q-1.59375 0 -2.453125 -0.78125q-0.859375 -0.78125 -0.859375 -1.984375q0 -0.71875 0.328125 -1.296875q0.328125 -0.59375 0.84375 -0.9375q0.53125 -0.359375 1.1875 -0.546875q0.46875 -0.125 1.453125 -0.25q1.984375 -0.234375 2.921875 -0.5625q0.015625 -0.34375 0.015625 -0.421875q0 -1.0 -0.46875 -1.421875q-0.625 -0.546875 -1.875 -0.546875q-1.15625 0 -1.703125 0.40625q-0.546875 0.40625 -0.8125 1.421875l-1.609375 -0.21875q0.21875 -1.015625 0.71875 -1.640625q0.5 -0.640625 1.453125 -0.984375q0.953125 -0.34375 2.1875 -0.34375q1.25 0 2.015625 0.296875q0.78125 0.28125 1.140625 0.734375q0.375 0.4375 0.515625 1.109375q0.078125 0.421875 0.078125 1.515625l0 2.1875q0 2.28125 0.109375 2.890625q0.109375 0.59375 0.40625 1.15625l-1.703125 0q-0.265625 -0.515625 -0.328125 -1.1875zm-0.140625 -3.671875q-0.890625 0.375 -2.671875 0.625q-1.015625 0.140625 -1.4375 0.328125q-0.421875 0.1875 -0.65625 0.53125q-0.21875 0.34375 -0.21875 0.78125q0 0.65625 0.5 1.09375q0.5 0.4375 1.453125 0.4375q0.9375 0 1.671875 -0.40625q0.75 -0.421875 1.09375 -1.140625q0.265625 -0.5625 0.265625 -1.640625l0 -0.609375zm3.891327 5.65625l1.59375 0.234375q0.109375 0.75 0.5625 1.078125q0.609375 0.453125 1.671875 0.453125q1.140625 0 1.75 -0.453125q0.625 -0.453125 0.84375 -1.265625q0.125 -0.5 0.109375 -2.109375q-1.0625 1.265625 -2.671875 1.265625q-2.0 0 -3.09375 -1.4375q-1.09375 -1.4375 -1.09375 -3.453125q0 -1.390625 0.5 -2.5625q0.515625 -1.171875 1.453125 -1.796875q0.953125 -0.640625 2.25 -0.640625q1.703125 0 2.8125 1.375l0 -1.15625l1.515625 0l0 8.359375q0 2.265625 -0.46875 3.203125q-0.453125 0.9375 -1.453125 1.484375q-0.984375 0.546875 -2.453125 0.546875q-1.71875 0 -2.796875 -0.78125q-1.0625 -0.765625 -1.03125 -2.34375zm1.359375 -5.8125q0 1.90625 0.75 2.78125q0.765625 0.875 1.90625 0.875q1.125 0 1.890625 -0.859375q0.765625 -0.875 0.765625 -2.734375q0 -1.78125 -0.796875 -2.671875q-0.78125 -0.90625 -1.890625 -0.90625q-1.09375 0 -1.859375 0.890625q-0.765625 0.875 -0.765625 2.625zm15.953857 1.90625l1.6875 0.203125q-0.40625 1.484375 -1.484375 2.3125q-1.078125 0.8125 -2.765625 0.8125q-2.125 0 -3.375 -1.296875q-1.234375 -1.3125 -1.234375 -3.671875q0 -2.453125 1.25 -3.796875q1.265625 -1.34375 3.265625 -1.34375q1.9375 0 3.15625 1.328125q1.234375 1.3125 1.234375 3.703125q0 0.15625 0 0.4375l-7.21875 0q0.09375 1.59375 0.90625 2.453125q0.8125 0.84375 2.015625 0.84375q0.90625 0 1.546875 -0.46875q0.640625 -0.484375 1.015625 -1.515625zm-5.390625 -2.65625l5.40625 0q-0.109375 -1.21875 -0.625 -1.828125q-0.78125 -0.953125 -2.03125 -0.953125q-1.125 0 -1.90625 0.765625q-0.765625 0.75 -0.84375 2.015625z" fill-rule="nonzero"/><path fill="#eeeeee" d="m493.81366 59.263397l0 0c0 -4.1226463 3.342041 -7.464714 7.464691 -7.464714l76.40915 0c1.9797974 0 3.878479 0.78645706 5.2783813 2.1863632c1.3999023 1.3999062 2.1863403 3.2985878 2.1863403 5.278351l0 29.857971c0 4.12265 -3.342041 7.464714 -7.4647217 7.464714l-76.40915 0c-4.12265 0 -7.464691 -3.342064 -7.464691 -7.464714z" fill-rule="evenodd"/><path stroke="#ff0000" stroke-width="2.0" stroke-linejoin="round" stroke-linecap="butt" d="m493.81366 59.263397l0 0c0 -4.1226463 3.342041 -7.464714 7.464691 -7.464714l76.40915 0c1.9797974 0 3.878479 0.78645706 5.2783813 2.1863632c1.3999023 1.3999062 2.1863403 3.2985878 2.1863403 5.278351l0 29.857971c0 4.12265 -3.342041 7.464714 -7.4647217 7.464714l-76.40915 0c-4.12265 0 -7.464691 -3.342064 -7.464691 -7.464714z" fill-rule="evenodd"/><path fill="#ff0000" d="m521.2882 81.11238l0 -13.359375l1.765625 0l0 5.484375l6.9375 0l0 -5.484375l1.765625 0l0 13.359375l-1.765625 0l0 -6.296875l-6.9375 0l0 6.296875l-1.765625 0zm22.176086 -13.359375l1.765625 0l0 7.71875q0 2.015625 -0.453125 3.203125q-0.453125 1.1875 -1.640625 1.9375q-1.1875 0.734375 -3.125 0.734375q-1.875 0 -3.078125 -0.640625q-1.1875 -0.65625 -1.703125 -1.875q-0.5 -1.234375 -0.5 -3.359375l0 -7.71875l1.765625 0l0 7.71875q0 1.734375 0.3125 2.5625q0.328125 0.8125 1.109375 1.265625q0.796875 0.453125 1.9375 0.453125q1.953125 0 2.78125 -0.890625q0.828125 -0.890625 0.828125 -3.390625l0 -7.71875zm4.7385864 13.359375l0 -13.359375l9.65625 0l0 1.578125l-7.875 0l0 4.09375l7.375 0l0 1.5625l-7.375 0l0 4.546875l8.1875 0l0 1.578125l-9.96875 0z" fill-rule="nonzero"/><path fill="#eeeeee" d="m602.6942 59.263397l0 0c0 -4.1226463 3.342102 -7.464714 7.4647217 -7.464714l76.40918 0c1.9797363 0 3.878418 0.78645706 5.2783203 2.1863632c1.3999023 1.3999062 2.1864014 3.2985878 2.1864014 5.278351l0 29.857971c0 4.12265 -3.342102 7.464714 -7.4647217 7.464714l-76.40918 0c-4.1226196 0 -7.4647217 -3.342064 -7.4647217 -7.464714z" fill-rule="evenodd"/><path stroke="#ff0000" stroke-width="2.0" stroke-linejoin="round" stroke-linecap="butt" d="m602.6942 59.263397l0 0c0 -4.1226463 3.342102 -7.464714 7.4647217 -7.464714l76.40918 0c1.9797363 0 3.878418 0.78645706 5.2783203 2.1863632c1.3999023 1.3999062 2.1864014 3.2985878 2.1864014 5.278351l0 29.857971c0 4.12265 -3.342102 7.464714 -7.4647217 7.464714l-76.40918 0c-4.1226196 0 -7.4647217 -3.342064 -7.4647217 -7.464714z" fill-rule="evenodd"/><path fill="#ff0000" d="m631.06573 76.815506l1.65625 -0.140625q0.125 1.0 0.546875 1.640625q0.4375 0.640625 1.34375 1.046875q0.921875 0.390625 2.0625 0.390625q1.0 0 1.78125 -0.296875q0.78125 -0.296875 1.15625 -0.8125q0.375 -0.53125 0.375 -1.15625q0 -0.625 -0.375 -1.09375q-0.359375 -0.46875 -1.1875 -0.796875q-0.546875 -0.203125 -2.390625 -0.640625q-1.828125 -0.453125 -2.5625 -0.84375q-0.96875 -0.5 -1.4375 -1.234375q-0.46875 -0.75 -0.46875 -1.671875q0 -1.0 0.578125 -1.875q0.578125 -0.890625 1.671875 -1.34375q1.109375 -0.453125 2.453125 -0.453125q1.484375 0 2.609375 0.484375q1.140625 0.46875 1.75 1.40625q0.609375 0.921875 0.65625 2.09375l-1.6875 0.125q-0.140625 -1.265625 -0.9375 -1.90625q-0.78125 -0.65625 -2.3125 -0.65625q-1.609375 0 -2.34375 0.59375q-0.734375 0.59375 -0.734375 1.421875q0 0.71875 0.53125 1.171875q0.5 0.46875 2.65625 0.96875q2.15625 0.484375 2.953125 0.84375q1.171875 0.53125 1.71875 1.359375q0.5625 0.828125 0.5625 1.90625q0 1.0625 -0.609375 2.015625q-0.609375 0.9375 -1.75 1.46875q-1.140625 0.515625 -2.578125 0.515625q-1.8125 0 -3.046875 -0.53125q-1.21875 -0.53125 -1.921875 -1.59375q-0.6875 -1.0625 -0.71875 -2.40625zm11.5685425 4.296875l5.125 -13.359375l1.90625 0l5.46875 13.359375l-2.015625 0l-1.546875 -4.046875l-5.59375 0l-1.46875 4.046875l-1.875 0zm3.859375 -5.484375l4.53125 0l-1.40625 -3.703125q-0.625 -1.6875 -0.9375 -2.765625q-0.265625 1.28125 -0.71875 2.546875l-1.46875 3.921875zm13.4592285 5.484375l0 -11.78125l-4.40625 0l0 -1.578125l10.578125 0l0 1.578125l-4.40625 0l0 11.78125l-1.765625 0z" fill-rule="nonzero"/><path fill="#eeeeee" d="m711.57745 59.294895l0 0c0 -4.12265 3.342041 -7.464718 7.4646606 -7.464718l76.40918 0c1.9797363 0 3.878418 0.7864609 5.2783813 2.186367c1.3999023 1.3999062 2.1863403 3.298584 2.1863403 5.278351l0 29.857967c0 4.12265 -3.342102 7.464714 -7.4647217 7.464714l-76.40918 0c-4.1226196 0 -7.4646606 -3.342064 -7.4646606 -7.464714z" fill-rule="evenodd"/><path stroke="#ff0000" stroke-width="2.0" stroke-linejoin="round" stroke-linecap="butt" d="m711.57745 59.294895l0 0c0 -4.12265 3.342041 -7.464718 7.4646606 -7.464718l76.40918 0c1.9797363 0 3.878418 0.7864609 5.2783813 2.186367c1.3999023 1.3999062 2.1863403 3.298584 2.1863403 5.278351l0 29.857967c0 4.12265 -3.342102 7.464714 -7.4647217 7.464714l-76.40918 0c-4.1226196 0 -7.4646606 -3.342064 -7.4646606 -7.464714z" fill-rule="evenodd"/><path fill="#ff0000" d="m744.8653 81.143875l-5.171875 -13.359375l1.921875 0l3.46875 9.703125q0.421875 1.171875 0.703125 2.1875q0.3125 -1.09375 0.71875 -2.1875l3.609375 -9.703125l1.796875 0l-5.234375 13.359375l-1.8125 0zm7.1622925 0l5.125 -13.359375l1.90625 0l5.46875 13.359375l-2.015625 0l-1.546875 -4.046875l-5.59375 0l-1.46875 4.046875l-1.875 0zm3.859375 -5.484375l4.53125 0l-1.40625 -3.703125q-0.625 -1.6875 -0.9375 -2.765625q-0.265625 1.28125 -0.71875 2.546875l-1.46875 3.921875zm9.9748535 5.484375l0 -13.359375l1.78125 0l0 11.78125l6.5625 0l0 1.578125l-8.34375 0z" fill-rule="nonzero"/><path fill="#000000" fill-opacity="0.0" d="m460.8609 74.19029l16.47638 0l0 0.06298828l16.468506 0" fill-rule="evenodd"/><path stroke="#ff0000" stroke-width="2.0" stroke-linejoin="round" stroke-linecap="butt" stroke-dasharray="8.0,6.0,2.0,6.0" d="m460.8609 74.19029l16.47638 0l0 0.06298828l16.468506 0" fill-rule="evenodd"/><path fill="#000000" fill-opacity="0.0" d="m585.1522 74.19238l8.770935 0l0 0.06299591l8.7724 0" fill-rule="evenodd"/><path stroke="#ff0000" stroke-width="2.0" stroke-linejoin="round" stroke-linecap="butt" d="m585.1522 74.19238l5.543457 0" fill-rule="evenodd"/><path fill="#ff0000" stroke="#ff0000" stroke-width="2.0" stroke-linecap="butt" d="m590.67834 77.495804l9.093445 -3.2557755l-9.058716 -3.351059z" fill-rule="evenodd"/><path fill="#000000" fill-opacity="0.0" d="m694.03284 74.19238l8.772339 0l0 0.06299591l8.770935 0" fill-rule="evenodd"/><path stroke="#ff0000" stroke-width="2.0" stroke-linejoin="round" stroke-linecap="butt" d="m694.03284 74.19238l5.543457 0" fill-rule="evenodd"/><path fill="#ff0000" stroke="#ff0000" stroke-width="2.0" stroke-linecap="butt" d="m699.55896 77.495804l9.093384 -3.2557755l-9.058716 -3.351059z" fill-rule="evenodd"/><path fill="#000000" fill-opacity="0.0" d="m802.916 74.22388l24.999817 0l0 -47.425255l-288.43292 0l0 25.00006" fill-rule="evenodd"/><path stroke="#ff0000" stroke-width="2.0" stroke-linejoin="round" stroke-linecap="butt" d="m802.916 74.223885l24.999817 0l0 -47.42526l-288.43292 0l0 13.000057" fill-rule="evenodd"/><path fill="#ff0000" stroke="#ff0000" stroke-width="2.0" stroke-linecap="butt" d="m536.1795 39.798683l3.3034058 9.076199l3.3034668 -9.076199z" fill-rule="evenodd"/><path fill="#eeeeee" d="m493.81235 186.8802l0 0c0 -4.12265 3.342041 -7.4647217 7.464691 -7.4647217l76.40918 0c1.9797363 0 3.878418 0.78645325 5.2783203 2.1863708c1.3999023 1.3999023 2.1864014 3.298584 2.1864014 5.278351l0 29.857956c0 4.12265 -3.342102 7.4647217 -7.4647217 7.4647217l-76.40918 0c-4.12265 0 -7.464691 -3.3420715 -7.464691 -7.4647217z" fill-rule="evenodd"/><path stroke="#ff9900" stroke-width="2.0" stroke-linejoin="round" stroke-linecap="butt" d="m493.81235 186.8802l0 0c0 -4.12265 3.342041 -7.4647217 7.464691 -7.4647217l76.40918 0c1.9797363 0 3.878418 0.78645325 5.2783203 2.1863708c1.3999023 1.3999023 2.1864014 3.298584 2.1864014 5.278351l0 29.857956c0 4.12265 -3.342102 7.4647217 -7.4647217 7.4647217l-76.40918 0c-4.12265 0 -7.464691 -3.3420715 -7.464691 -7.4647217z" fill-rule="evenodd"/><path fill="#ff9900" d="m523.8382 208.72917l0 -13.359375l5.921875 0q1.78125 0 2.703125 0.359375q0.9375 0.359375 1.484375 1.28125q0.5625 0.90625 0.5625 2.015625q0 1.40625 -0.921875 2.390625q-0.921875 0.96875 -2.84375 1.234375q0.703125 0.34375 1.078125 0.671875q0.765625 0.703125 1.453125 1.765625l2.328125 3.640625l-2.21875 0l-1.765625 -2.78125q-0.78125 -1.203125 -1.28125 -1.828125q-0.5 -0.640625 -0.90625 -0.890625q-0.390625 -0.265625 -0.796875 -0.359375q-0.296875 -0.078125 -0.984375 -0.078125l-2.046875 0l0 5.9375l-1.765625 0zm1.765625 -7.453125l3.796875 0q1.21875 0 1.890625 -0.25q0.6875 -0.265625 1.046875 -0.8125q0.359375 -0.546875 0.359375 -1.1875q0 -0.953125 -0.6875 -1.5625q-0.6875 -0.609375 -2.1875 -0.609375l-4.21875 0l0 4.421875zm18.097961 4.34375l1.6875 0.203125q-0.40625 1.484375 -1.484375 2.3125q-1.078125 0.8125 -2.765625 0.8125q-2.125 0 -3.375 -1.296875q-1.234375 -1.3125 -1.234375 -3.671875q0 -2.453125 1.25 -3.796875q1.265625 -1.34375 3.265625 -1.34375q1.9375 0 3.15625 1.328125q1.234375 1.3125 1.234375 3.703125q0 0.15625 0 0.4375l-7.21875 0q0.09375 1.59375 0.90625 2.453125q0.8125 0.84375 2.015625 0.84375q0.90625 0 1.546875 -0.46875q0.640625 -0.484375 1.015625 -1.515625zm-5.390625 -2.65625l5.40625 0q-0.109375 -1.21875 -0.625 -1.828125q-0.78125 -0.953125 -2.03125 -0.953125q-1.125 0 -1.90625 0.765625q-0.765625 0.75 -0.84375 2.015625zm15.406921 5.765625l0 -1.21875q-0.90625 1.4375 -2.703125 1.4375q-1.15625 0 -2.125 -0.640625q-0.96875 -0.640625 -1.5 -1.78125q-0.53125 -1.140625 -0.53125 -2.625q0 -1.453125 0.484375 -2.625q0.484375 -1.1875 1.4375 -1.8125q0.96875 -0.625 2.171875 -0.625q0.875 0 1.546875 0.375q0.6875 0.359375 1.109375 0.953125l0 -4.796875l1.640625 0l0 13.359375l-1.53125 0zm-5.171875 -4.828125q0 1.859375 0.78125 2.78125q0.78125 0.921875 1.84375 0.921875q1.078125 0 1.828125 -0.875q0.75 -0.890625 0.75 -2.6875q0 -1.984375 -0.765625 -2.90625q-0.765625 -0.9375 -1.890625 -0.9375q-1.078125 0 -1.8125 0.890625q-0.734375 0.890625 -0.734375 2.8125z" fill-rule="nonzero"/><path fill="#eeeeee" d="m602.69293 186.8802l0 0c0 -4.12265 3.342041 -7.4647217 7.4647217 -7.4647217l76.40912 0c1.9797974 0 3.878479 0.78645325 5.2783813 2.1863708c1.3999023 1.3999023 2.1863403 3.298584 2.1863403 5.278351l0 29.857956c0 4.12265 -3.342041 7.4647217 -7.4647217 7.4647217l-76.40912 0c-4.1226807 0 -7.4647217 -3.3420715 -7.4647217 -7.4647217z" fill-rule="evenodd"/><path stroke="#ff9900" stroke-width="2.0" stroke-linejoin="round" stroke-linecap="butt" d="m602.69293 186.8802l0 0c0 -4.12265 3.342041 -7.4647217 7.4647217 -7.4647217l76.40912 0c1.9797974 0 3.878479 0.78645325 5.2783813 2.1863708c1.3999023 1.3999023 2.1863403 3.298584 2.1863403 5.278351l0 29.857956c0 4.12265 -3.342041 7.4647217 -7.4647217 7.4647217l-76.40912 0c-4.1226807 0 -7.4647217 -3.3420715 -7.4647217 -7.4647217z" fill-rule="evenodd"/><path fill="#ff9900" d="m630.1241 203.4948l0 -1.578125l5.65625 0l0 4.953125q-1.296875 1.046875 -2.6875 1.578125q-1.375 0.515625 -2.84375 0.515625q-1.96875 0 -3.578125 -0.84375q-1.609375 -0.84375 -2.421875 -2.4375q-0.8125 -1.59375 -0.8125 -3.5625q0 -1.953125 0.8125 -3.640625q0.8125 -1.6875 2.34375 -2.5q1.53125 -0.828125 3.515625 -0.828125q1.453125 0 2.625 0.46875q1.171875 0.46875 1.828125 1.3125q0.671875 0.828125 1.015625 2.171875l-1.59375 0.4375q-0.296875 -1.015625 -0.75 -1.59375q-0.4375 -0.59375 -1.265625 -0.9375q-0.828125 -0.34375 -1.84375 -0.34375q-1.203125 0 -2.09375 0.375q-0.890625 0.359375 -1.4375 0.96875q-0.53125 0.59375 -0.828125 1.3125q-0.515625 1.234375 -0.515625 2.6875q0 1.78125 0.609375 2.984375q0.625 1.203125 1.796875 1.796875q1.171875 0.578125 2.5 0.578125q1.140625 0 2.234375 -0.4375q1.09375 -0.453125 1.65625 -0.953125l0 -2.484375l-3.921875 0zm8.042664 5.234375l0 -9.671875l1.46875 0l0 1.46875q0.5625 -1.03125 1.03125 -1.359375q0.484375 -0.328125 1.0625 -0.328125q0.828125 0 1.6875 0.53125l-0.5625 1.515625q-0.609375 -0.359375 -1.203125 -0.359375q-0.546875 0 -0.96875 0.328125q-0.421875 0.328125 -0.609375 0.890625q-0.28125 0.875 -0.28125 1.921875l0 5.0625l-1.625 0zm12.8533325 -3.109375l1.6875 0.203125q-0.40625 1.484375 -1.484375 2.3125q-1.078125 0.8125 -2.765625 0.8125q-2.125 0 -3.375 -1.296875q-1.234375 -1.3125 -1.234375 -3.671875q0 -2.453125 1.25 -3.796875q1.265625 -1.34375 3.265625 -1.34375q1.9375 0 3.15625 1.328125q1.234375 1.3125 1.234375 3.703125q0 0.15625 0 0.4375l-7.21875 0q0.09375 1.59375 0.90625 2.453125q0.8125 0.84375 2.015625 0.84375q0.90625 0 1.546875 -0.46875q0.640625 -0.484375 1.015625 -1.515625zm-5.390625 -2.65625l5.40625 0q-0.109375 -1.21875 -0.625 -1.828125q-0.78125 -0.953125 -2.03125 -0.953125q-1.125 0 -1.90625 0.765625q-0.765625 0.75 -0.84375 2.015625zm15.766296 2.65625l1.6875 0.203125q-0.40625 1.484375 -1.484375 2.3125q-1.078125 0.8125 -2.765625 0.8125q-2.125 0 -3.375 -1.296875q-1.234375 -1.3125 -1.234375 -3.671875q0 -2.453125 1.25 -3.796875q1.265625 -1.34375 3.265625 -1.34375q1.9375 0 3.15625 1.328125q1.234375 1.3125 1.234375 3.703125q0 0.15625 0 0.4375l-7.21875 0q0.09375 1.59375 0.90625 2.453125q0.8125 0.84375 2.015625 0.84375q0.90625 0 1.546875 -0.46875q0.640625 -0.484375 1.015625 -1.515625zm-5.390625 -2.65625l5.40625 0q-0.109375 -1.21875 -0.625 -1.828125q-0.78125 -0.953125 -2.03125 -0.953125q-1.125 0 -1.90625 0.765625q-0.765625 0.75 -0.84375 2.015625zm9.141357 5.765625l0 -9.671875l1.46875 0l0 1.375q1.0625 -1.59375 3.078125 -1.59375q0.875 0 1.609375 0.3125q0.734375 0.3125 1.09375 0.828125q0.375 0.5 0.515625 1.203125q0.09375 0.453125 0.09375 1.59375l0 5.953125l-1.640625 0l0 -5.890625q0 -1.0 -0.203125 -1.484375q-0.1875 -0.5 -0.671875 -0.796875q-0.484375 -0.296875 -1.140625 -0.296875q-1.046875 0 -1.8125 0.671875q-0.75 0.65625 -0.75 2.515625l0 5.28125l-1.640625 0z" fill-rule="nonzero"/><path fill="#eeeeee" d="m711.5761 186.9117l0 0c0 -4.12265 3.342102 -7.4647217 7.4647217 -7.4647217l76.40918 0c1.9797363 0 3.878418 0.78645325 5.2783203 2.1863708c1.3999023 1.3999023 2.1863403 3.298584 2.1863403 5.278351l0 29.857971c0 4.122635 -3.342041 7.4647064 -7.4646606 7.4647064l-76.40918 0c-4.1226196 0 -7.4647217 -3.3420715 -7.4647217 -7.4647064z" fill-rule="evenodd"/><path stroke="#ff9900" stroke-width="2.0" stroke-linejoin="round" stroke-linecap="butt" d="m711.5761 186.9117l0 0c0 -4.12265 3.342102 -7.4647217 7.4647217 -7.4647217l76.40918 0c1.9797363 0 3.878418 0.78645325 5.2783203 2.1863708c1.3999023 1.3999023 2.1863403 3.298584 2.1863403 5.278351l0 29.857971c0 4.122635 -3.342041 7.4647064 -7.4646606 7.4647064l-76.40918 0c-4.1226196 0 -7.4647217 -3.3420715 -7.4647217 -7.4647064z" fill-rule="evenodd"/><path fill="#ff0000" d="m744.86395 208.76068l-5.171875 -13.359375l1.921875 0l3.46875 9.703125q0.421875 1.171875 0.703125 2.1875q0.3125 -1.09375 0.71875 -2.1875l3.609375 -9.703125l1.796875 0l-5.234375 13.359375l-1.8125 0zm7.1623535 0l5.125 -13.359375l1.90625 0l5.46875 13.359375l-2.015625 0l-1.546875 -4.046875l-5.59375 0l-1.46875 4.046875l-1.875 0zm3.859375 -5.484375l4.53125 0l-1.40625 -3.703125q-0.625 -1.6875 -0.9375 -2.765625q-0.265625 1.28125 -0.71875 2.546875l-1.46875 3.921875zm9.9747925 5.484375l0 -13.359375l1.78125 0l0 11.78125l6.5625 0l0 1.578125l-8.34375 0z" fill-rule="nonzero"/><path fill="#000000" fill-opacity="0.0" d="m585.15094 201.80917l8.770935 0l0 0.06300354l8.772339 0" fill-rule="evenodd"/><path stroke="#ff9900" stroke-width="2.0" stroke-linejoin="round" stroke-linecap="butt" d="m585.15094 201.80917l5.543457 0" fill-rule="evenodd"/><path fill="#ff9900" stroke="#ff9900" stroke-width="2.0" stroke-linecap="butt" d="m590.67706 205.1126l9.093384 -3.2557678l-9.058716 -3.3510742z" fill-rule="evenodd"/><path fill="#000000" fill-opacity="0.0" d="m694.0315 201.80917l8.772339 0l0 0.06300354l8.770996 0" fill-rule="evenodd"/><path stroke="#ff9900" stroke-width="2.0" stroke-linejoin="round" stroke-linecap="butt" d="m694.0315 201.80917l5.543457 0" fill-rule="evenodd"/><path fill="#ff9900" stroke="#ff9900" stroke-width="2.0" stroke-linecap="butt" d="m699.5576 205.1126l9.093445 -3.2557678l-9.058777 -3.3510742z" fill-rule="evenodd"/><path fill="#eeeeee" d="m711.57086 186.8802l0 0c0 -4.12265 3.342102 -7.4647217 7.4647217 -7.4647217l76.40912 0c1.9797974 0 3.878479 0.78645325 5.2783813 2.1863708c1.3999023 1.3999023 2.1863403 3.298584 2.1863403 5.278351l0 29.857956c0 4.12265 -3.342041 7.4647217 -7.4647217 7.4647217l-76.40912 0c-4.1226196 0 -7.4647217 -3.3420715 -7.4647217 -7.4647217z" fill-rule="evenodd"/><path stroke="#ff9900" stroke-width="2.0" stroke-linejoin="round" stroke-linecap="butt" d="m711.57086 186.8802l0 0c0 -4.12265 3.342102 -7.4647217 7.4647217 -7.4647217l76.40912 0c1.9797974 0 3.878479 0.78645325 5.2783813 2.1863708c1.3999023 1.3999023 2.1863403 3.298584 2.1863403 5.278351l0 29.857956c0 4.12265 -3.342041 7.4647217 -7.4647217 7.4647217l-76.40912 0c-4.1226196 0 -7.4647217 -3.3420715 -7.4647217 -7.4647217z" fill-rule="evenodd"/><path fill="#ff9900" d="m739.9296 208.72917l0 -13.359375l5.015625 0q1.53125 0 2.453125 0.40625q0.921875 0.40625 1.4375 1.25q0.53125 0.84375 0.53125 1.765625q0 0.859375 -0.46875 1.625q-0.453125 0.75 -1.390625 1.203125q1.203125 0.359375 1.859375 1.21875q0.65625 0.859375 0.65625 2.015625q0 0.9375 -0.40625 1.75q-0.390625 0.796875 -0.984375 1.234375q-0.578125 0.4375 -1.453125 0.671875q-0.875 0.21875 -2.15625 0.21875l-5.09375 0zm1.78125 -7.75l2.875 0q1.1875 0 1.6875 -0.140625q0.671875 -0.203125 1.015625 -0.671875q0.34375 -0.46875 0.34375 -1.171875q0 -0.65625 -0.328125 -1.15625q-0.3125 -0.515625 -0.90625 -0.703125q-0.59375 -0.1875 -2.03125 -0.1875l-2.65625 0l0 4.03125zm0 6.171875l3.3125 0q0.859375 0 1.203125 -0.0625q0.609375 -0.109375 1.015625 -0.359375q0.421875 -0.265625 0.6875 -0.75q0.265625 -0.484375 0.265625 -1.125q0 -0.75 -0.390625 -1.296875q-0.375 -0.546875 -1.0625 -0.765625q-0.671875 -0.234375 -1.953125 -0.234375l-3.078125 0l0 4.59375zm10.4904175 1.578125l0 -13.359375l1.640625 0l0 13.359375l-1.640625 0zm10.519836 0l0 -1.421875q-1.125 1.640625 -3.0625 1.640625q-0.859375 0 -1.609375 -0.328125q-0.734375 -0.328125 -1.09375 -0.828125q-0.359375 -0.5 -0.5 -1.21875q-0.109375 -0.46875 -0.109375 -1.53125l0 -5.984375l1.640625 0l0 5.359375q0 1.28125 0.109375 1.734375q0.15625 0.640625 0.65625 1.015625q0.5 0.375 1.234375 0.375q0.734375 0 1.375 -0.375q0.65625 -0.390625 0.921875 -1.03125q0.265625 -0.65625 0.265625 -1.890625l0 -5.1875l1.640625 0l0 9.671875l-1.46875 0zm10.672607 -3.109375l1.6875 0.203125q-0.40625 1.484375 -1.484375 2.3125q-1.078125 0.8125 -2.765625 0.8125q-2.125 0 -3.375 -1.296875q-1.234375 -1.3125 -1.234375 -3.671875q0 -2.453125 1.25 -3.796875q1.265625 -1.34375 3.265625 -1.34375q1.9375 0 3.15625 1.328125q1.234375 1.3125 1.234375 3.703125q0 0.15625 0 0.4375l-7.21875 0q0.09375 1.59375 0.90625 2.453125q0.8125 0.84375 2.015625 0.84375q0.90625 0 1.546875 -0.46875q0.640625 -0.484375 1.015625 -1.515625zm-5.390625 -2.65625l5.40625 0q-0.109375 -1.21875 -0.625 -1.828125q-0.78125 -0.953125 -2.03125 -0.953125q-1.125 0 -1.90625 0.765625q-0.765625 0.75 -0.84375 2.015625z" fill-rule="nonzero"/><path fill="#eeeeee" d="m493.80972 314.5285l0 0c0 -4.12265 3.342041 -7.4647217 7.464691 -7.4647217l76.40918 0c1.9797363 0 3.878418 0.786438 5.2783203 2.1863708c1.3999023 1.3999023 2.1864014 3.298584 2.1864014 5.278351l0 29.857971c0 4.1226196 -3.342102 7.464691 -7.4647217 7.464691l-76.40918 0c-4.12265 0 -7.464691 -3.3420715 -7.464691 -7.464691z" fill-rule="evenodd"/><path stroke="#6aa84f" stroke-width="2.0" stroke-linejoin="round" stroke-linecap="butt" d="m493.80972 314.5285l0 0c0 -4.12265 3.342041 -7.4647217 7.464691 -7.4647217l76.40918 0c1.9797363 0 3.878418 0.786438 5.2783203 2.1863708c1.3999023 1.3999023 2.1864014 3.298584 2.1864014 5.278351l0 29.857971c0 4.1226196 -3.342102 7.464691 -7.4647217 7.464691l-76.40918 0c-4.12265 0 -7.464691 -3.3420715 -7.464691 -7.464691z" fill-rule="evenodd"/><path fill="#6aa84f" d="m524.07367 336.37747l-3.53125 -13.359375l1.8125 0l2.03125 8.765625q0.328125 1.375 0.5625 2.71875q0.5 -2.140625 0.59375 -2.46875l2.546875 -9.015625l2.125 0l1.921875 6.765625q0.71875 2.515625 1.03125 4.71875q0.265625 -1.265625 0.671875 -2.890625l2.09375 -8.59375l1.78125 0l-3.671875 13.359375l-1.703125 0l-2.8125 -10.171875q-0.359375 -1.28125 -0.421875 -1.5625q-0.203125 0.90625 -0.390625 1.5625l-2.828125 10.171875l-1.8125 0zm15.077454 -11.46875l0 -1.890625l1.640625 0l0 1.890625l-1.640625 0zm0 11.46875l0 -9.671875l1.640625 0l0 9.671875l-1.640625 0zm4.1291504 0l0 -9.671875l1.46875 0l0 1.46875q0.5625 -1.03125 1.03125 -1.359375q0.484375 -0.328125 1.0625 -0.328125q0.828125 0 1.6875 0.53125l-0.5625 1.515625q-0.609375 -0.359375 -1.203125 -0.359375q-0.546875 0 -0.96875 0.328125q-0.421875 0.328125 -0.609375 0.890625q-0.28125 0.875 -0.28125 1.921875l0 5.0625l-1.625 0zm12.8533325 -3.109375l1.6875 0.203125q-0.40625 1.484375 -1.484375 2.3125q-1.078125 0.8125 -2.765625 0.8125q-2.125 0 -3.375 -1.296875q-1.234375 -1.3125 -1.234375 -3.671875q0 -2.453125 1.25 -3.796875q1.265625 -1.34375 3.265625 -1.34375q1.9375 0 3.15625 1.328125q1.234375 1.3125 1.234375 3.703125q0 0.15625 0 0.4375l-7.21875 0q0.09375 1.59375 0.90625 2.453125q0.8125 0.84375 2.015625 0.84375q0.90625 0 1.546875 -0.46875q0.640625 -0.484375 1.015625 -1.515625zm-5.390625 -2.65625l5.40625 0q-0.109375 -1.21875 -0.625 -1.828125q-0.78125 -0.953125 -2.03125 -0.953125q-1.125 0 -1.90625 0.765625q-0.765625 0.75 -0.84375 2.015625z" fill-rule="nonzero"/><path fill="#eeeeee" d="m602.6903 314.5285l0 0c0 -4.12265 3.342041 -7.4647217 7.4647217 -7.4647217l76.40912 0c1.9797974 0 3.878479 0.786438 5.2783813 2.1863708c1.3999023 1.3999023 2.1863403 3.298584 2.1863403 5.278351l0 29.857971c0 4.1226196 -3.342041 7.464691 -7.4647217 7.464691l-76.40912 0c-4.1226807 0 -7.4647217 -3.3420715 -7.4647217 -7.464691z" fill-rule="evenodd"/><path stroke="#6aa84f" stroke-width="2.0" stroke-linejoin="round" stroke-linecap="butt" d="m602.6903 314.5285l0 0c0 -4.12265 3.342041 -7.4647217 7.4647217 -7.4647217l76.40912 0c1.9797974 0 3.878479 0.786438 5.2783813 2.1863708c1.3999023 1.3999023 2.1863403 3.298584 2.1863403 5.278351l0 29.857971c0 4.1226196 -3.342041 7.464691 -7.4647217 7.464691l-76.40912 0c-4.1226807 0 -7.4647217 -3.3420715 -7.4647217 -7.464691z" fill-rule="evenodd"/><path fill="#6aa84f" d="m629.5317 336.37747l0 -13.359375l2.65625 0l3.15625 9.453125q0.4375 1.328125 0.640625 1.984375q0.234375 -0.734375 0.703125 -2.140625l3.203125 -9.296875l2.375 0l0 13.359375l-1.703125 0l0 -11.171875l-3.875 11.171875l-1.59375 0l-3.859375 -11.375l0 11.375l-1.703125 0zm21.697083 -1.1875q-0.921875 0.765625 -1.765625 1.09375q-0.828125 0.3125 -1.796875 0.3125q-1.59375 0 -2.453125 -0.78125q-0.859375 -0.78125 -0.859375 -1.984375q0 -0.71875 0.328125 -1.296875q0.328125 -0.59375 0.84375 -0.9375q0.53125 -0.359375 1.1875 -0.546875q0.46875 -0.125 1.453125 -0.25q1.984375 -0.234375 2.921875 -0.5625q0.015625 -0.34375 0.015625 -0.421875q0 -1.0 -0.46875 -1.421875q-0.625 -0.546875 -1.875 -0.546875q-1.15625 0 -1.703125 0.40625q-0.546875 0.40625 -0.8125 1.421875l-1.609375 -0.21875q0.21875 -1.015625 0.71875 -1.640625q0.5 -0.640625 1.453125 -0.984375q0.953125 -0.34375 2.1875 -0.34375q1.25 0 2.015625 0.296875q0.78125 0.28125 1.140625 0.734375q0.375 0.4375 0.515625 1.109375q0.078125 0.421875 0.078125 1.515625l0 2.1875q0 2.28125 0.109375 2.890625q0.109375 0.59375 0.40625 1.15625l-1.703125 0q-0.265625 -0.515625 -0.328125 -1.1875zm-0.140625 -3.671875q-0.890625 0.375 -2.671875 0.625q-1.015625 0.140625 -1.4375 0.328125q-0.421875 0.1875 -0.65625 0.53125q-0.21875 0.34375 -0.21875 0.78125q0 0.65625 0.5 1.09375q0.5 0.4375 1.453125 0.4375q0.9375 0 1.671875 -0.40625q0.75 -0.421875 1.09375 -1.140625q0.265625 -0.5625 0.265625 -1.640625l0 -0.609375zm4.2037964 -6.609375l0 -1.890625l1.640625 0l0 1.890625l-1.640625 0zm0 11.46875l0 -9.671875l1.640625 0l0 9.671875l-1.640625 0zm4.1448364 0l0 -9.671875l1.46875 0l0 1.375q1.0625 -1.59375 3.078125 -1.59375q0.875 0 1.609375 0.3125q0.734375 0.3125 1.09375 0.828125q0.375 0.5 0.515625 1.203125q0.09375 0.453125 0.09375 1.59375l0 5.953125l-1.640625 0l0 -5.890625q0 -1.0 -0.203125 -1.484375q-0.1875 -0.5 -0.671875 -0.796875q-0.484375 -0.296875 -1.140625 -0.296875q-1.046875 0 -1.8125 0.671875q-0.75 0.65625 -0.75 2.515625l0 5.28125l-1.640625 0z" fill-rule="nonzero"/><path fill="#eeeeee" d="m711.5735 314.56l0 0c0 -4.12265 3.342102 -7.4647217 7.4647217 -7.4647217l76.40918 0c1.9797363 0 3.878418 0.7864685 5.2783203 2.1863708c1.3999023 1.3999023 2.1863403 3.298584 2.1863403 5.278351l0 29.857971c0 4.12265 -3.342041 7.464691 -7.4646606 7.464691l-76.40918 0c-4.1226196 0 -7.4647217 -3.342041 -7.4647217 -7.464691z" fill-rule="evenodd"/><path stroke="#6aa84f" stroke-width="2.0" stroke-linejoin="round" stroke-linecap="butt" d="m711.5735 314.56l0 0c0 -4.12265 3.342102 -7.4647217 7.4647217 -7.4647217l76.40918 0c1.9797363 0 3.878418 0.7864685 5.2783203 2.1863708c1.3999023 1.3999023 2.1863403 3.298584 2.1863403 5.278351l0 29.857971c0 4.12265 -3.342041 7.464691 -7.4646606 7.464691l-76.40918 0c-4.1226196 0 -7.4647217 -3.342041 -7.4647217 -7.464691z" fill-rule="evenodd"/><path fill="#ff0000" d="m744.8613 336.40897l-5.171875 -13.359375l1.921875 0l3.46875 9.703125q0.421875 1.171875 0.703125 2.1875q0.3125 -1.09375 0.71875 -2.1875l3.609375 -9.703125l1.796875 0l-5.234375 13.359375l-1.8125 0zm7.1623535 0l5.125 -13.359375l1.90625 0l5.46875 13.359375l-2.015625 0l-1.546875 -4.046875l-5.59375 0l-1.46875 4.046875l-1.875 0zm3.859375 -5.484375l4.53125 0l-1.40625 -3.703125q-0.625 -1.6875 -0.9375 -2.765625q-0.265625 1.28125 -0.71875 2.546875l-1.46875 3.921875zm9.9747925 5.484375l0 -13.359375l1.78125 0l0 11.78125l6.5625 0l0 1.578125l-8.34375 0z" fill-rule="nonzero"/><path fill="#000000" fill-opacity="0.0" d="m585.1483 329.4575l8.770935 0l0 0.06298828l8.772339 0" fill-rule="evenodd"/><path stroke="#6aa84f" stroke-width="2.0" stroke-linejoin="round" stroke-linecap="butt" d="m585.1483 329.45746l5.543457 0" fill-rule="evenodd"/><path fill="#6aa84f" stroke="#6aa84f" stroke-width="2.0" stroke-linecap="butt" d="m590.67444 332.7609l9.093384 -3.2557678l-9.058716 -3.3510742z" fill-rule="evenodd"/><path fill="#000000" fill-opacity="0.0" d="m694.0289 329.4575l8.772339 0l0 0.06298828l8.770996 0" fill-rule="evenodd"/><path stroke="#6aa84f" stroke-width="2.0" stroke-linejoin="round" stroke-linecap="butt" d="m694.0289 329.45746l5.543457 0" fill-rule="evenodd"/><path fill="#6aa84f" stroke="#6aa84f" stroke-width="2.0" stroke-linecap="butt" d="m699.555 332.7609l9.093445 -3.2557678l-9.058777 -3.3510742z" fill-rule="evenodd"/><path fill="#eeeeee" d="m711.56824 314.5285l0 0c0 -4.12265 3.342041 -7.4647217 7.4647217 -7.4647217l76.40912 0c1.9797974 0 3.878479 0.786438 5.2783813 2.1863708c1.3999023 1.3999023 2.1863403 3.298584 2.1863403 5.278351l0 29.857971c0 4.1226196 -3.342041 7.464691 -7.4647217 7.464691l-76.40912 0c-4.1226807 0 -7.4647217 -3.3420715 -7.4647217 -7.464691z" fill-rule="evenodd"/><path stroke="#6aa84f" stroke-width="2.0" stroke-linejoin="round" stroke-linecap="butt" d="m711.56824 314.5285l0 0c0 -4.12265 3.342041 -7.4647217 7.4647217 -7.4647217l76.40912 0c1.9797974 0 3.878479 0.786438 5.2783813 2.1863708c1.3999023 1.3999023 2.1863403 3.298584 2.1863403 5.278351l0 29.857971c0 4.1226196 -3.342041 7.464691 -7.4647217 7.464691l-76.40912 0c-4.1226807 0 -7.4647217 -3.3420715 -7.4647217 -7.464691z" fill-rule="evenodd"/><path fill="#6aa84f" d="m735.818 336.37747l0 -13.359375l2.65625 0l3.15625 9.453125q0.4375 1.328125 0.640625 1.984375q0.234375 -0.734375 0.703125 -2.140625l3.203125 -9.296875l2.375 0l0 13.359375l-1.703125 0l0 -11.171875l-3.875 11.171875l-1.59375 0l-3.859375 -11.375l0 11.375l-1.703125 0zm22.009521 -3.109375l1.6875 0.203125q-0.40625 1.484375 -1.484375 2.3125q-1.078125 0.8125 -2.765625 0.8125q-2.125 0 -3.375 -1.296875q-1.234375 -1.3125 -1.234375 -3.671875q0 -2.453125 1.25 -3.796875q1.265625 -1.34375 3.265625 -1.34375q1.9375 0 3.15625 1.328125q1.234375 1.3125 1.234375 3.703125q0 0.15625 0 0.4375l-7.21875 0q0.09375 1.59375 0.90625 2.453125q0.8125 0.84375 2.015625 0.84375q0.90625 0 1.546875 -0.46875q0.640625 -0.484375 1.015625 -1.515625zm-5.390625 -2.65625l5.40625 0q-0.109375 -1.21875 -0.625 -1.828125q-0.78125 -0.953125 -2.03125 -0.953125q-1.125 0 -1.90625 0.765625q-0.765625 0.75 -0.84375 2.015625zm8.485107 2.875l1.625 -0.25q0.125 0.96875 0.75 1.5q0.625 0.515625 1.75 0.515625q1.125 0 1.671875 -0.453125q0.546875 -0.46875 0.546875 -1.09375q0 -0.546875 -0.484375 -0.875q-0.328125 -0.21875 -1.671875 -0.546875q-1.8125 -0.46875 -2.515625 -0.796875q-0.6875 -0.328125 -1.046875 -0.90625q-0.359375 -0.59375 -0.359375 -1.3125q0 -0.640625 0.296875 -1.1875q0.296875 -0.5625 0.8125 -0.921875q0.375 -0.28125 1.03125 -0.46875q0.671875 -0.203125 1.421875 -0.203125q1.140625 0 2.0 0.328125q0.859375 0.328125 1.265625 0.890625q0.421875 0.5625 0.578125 1.5l-1.609375 0.21875q-0.109375 -0.75 -0.640625 -1.171875q-0.515625 -0.421875 -1.46875 -0.421875q-1.140625 0 -1.625 0.375q-0.46875 0.375 -0.46875 0.875q0 0.3125 0.1875 0.578125q0.203125 0.265625 0.640625 0.4375q0.234375 0.09375 1.4375 0.421875q1.75 0.453125 2.4375 0.75q0.6875 0.296875 1.078125 0.859375q0.390625 0.5625 0.390625 1.40625q0 0.828125 -0.484375 1.546875q-0.46875 0.71875 -1.375 1.125q-0.90625 0.390625 -2.046875 0.390625q-1.875 0 -2.875 -0.78125q-0.984375 -0.78125 -1.25 -2.328125zm9.984375 2.890625l0 -13.359375l1.640625 0l0 4.796875q1.140625 -1.328125 2.890625 -1.328125q1.078125 0 1.859375 0.421875q0.796875 0.421875 1.140625 1.171875q0.34375 0.75 0.34375 2.171875l0 6.125l-1.640625 0l0 -6.125q0 -1.234375 -0.53125 -1.796875q-0.53125 -0.5625 -1.515625 -0.5625q-0.71875 0 -1.359375 0.390625q-0.640625 0.375 -0.921875 1.015625q-0.265625 0.640625 -0.265625 1.78125l0 5.296875l-1.640625 0z" fill-rule="nonzero"/><path fill="#eeeeee" d="m493.8071 442.20828l0 0c0 -4.12265 3.342041 -7.4647217 7.464691 -7.4647217l76.40918 0c1.9797363 0 3.878418 0.7864685 5.2783203 2.1863708c1.3999023 1.3999023 2.1864014 3.298584 2.1864014 5.278351l0 29.857971c0 4.12265 -3.342102 7.4647217 -7.4647217 7.4647217l-76.40918 0c-4.12265 0 -7.464691 -3.3420715 -7.464691 -7.4647217z" fill-rule="evenodd"/><path stroke="#0000ff" stroke-width="2.0" stroke-linejoin="round" stroke-linecap="butt" d="m493.8071 442.20828l0 0c0 -4.12265 3.342041 -7.4647217 7.464691 -7.4647217l76.40918 0c1.9797363 0 3.878418 0.7864685 5.2783203 2.1863708c1.3999023 1.3999023 2.1864014 3.298584 2.1864014 5.278351l0 29.857971c0 4.12265 -3.342102 7.4647217 -7.4647217 7.4647217l-76.40918 0c-4.12265 0 -7.464691 -3.3420715 -7.464691 -7.4647217z" fill-rule="evenodd"/><path fill="#0000ff" d="m520.3747 459.36975l1.765625 0.453125q-0.5625 2.171875 -2.0 3.328125q-1.4375 1.140625 -3.53125 1.140625q-2.15625 0 -3.515625 -0.875q-1.34375 -0.890625 -2.0625 -2.546875q-0.703125 -1.671875 -0.703125 -3.59375q0 -2.078125 0.796875 -3.625q0.796875 -1.5625 2.265625 -2.359375q1.484375 -0.8125 3.25 -0.8125q2.0 0 3.359375 1.015625q1.375 1.015625 1.90625 2.875l-1.734375 0.40625q-0.46875 -1.453125 -1.359375 -2.109375q-0.875 -0.671875 -2.203125 -0.671875q-1.546875 0 -2.578125 0.734375q-1.03125 0.734375 -1.453125 1.984375q-0.421875 1.234375 -0.421875 2.5625q0 1.703125 0.5 2.96875q0.5 1.265625 1.546875 1.90625q1.046875 0.625 2.265625 0.625q1.484375 0 2.515625 -0.859375q1.03125 -0.859375 1.390625 -2.546875zm3.1292114 -0.15625q0 -2.6875 1.484375 -3.96875q1.25 -1.078125 3.046875 -1.078125q2.0 0 3.265625 1.3125q1.265625 1.296875 1.265625 3.609375q0 1.859375 -0.5625 2.9375q-0.5625 1.0625 -1.640625 1.65625q-1.0625 0.59375 -2.328125 0.59375q-2.03125 0 -3.28125 -1.296875q-1.25 -1.3125 -1.25 -3.765625zm1.6875 0q0 1.859375 0.796875 2.796875q0.8125 0.921875 2.046875 0.921875q1.21875 0 2.03125 -0.921875q0.8125 -0.9375 0.8125 -2.84375q0 -1.796875 -0.8125 -2.71875q-0.8125 -0.921875 -2.03125 -0.921875q-1.234375 0 -2.046875 0.921875q-0.796875 0.90625 -0.796875 2.765625zm9.250671 4.84375l0 -13.359375l1.640625 0l0 13.359375l-1.640625 0zm3.5823364 -4.84375q0 -2.6875 1.484375 -3.96875q1.25 -1.078125 3.046875 -1.078125q2.0 0 3.265625 1.3125q1.265625 1.296875 1.265625 3.609375q0 1.859375 -0.5625 2.9375q-0.5625 1.0625 -1.640625 1.65625q-1.0625 0.59375 -2.328125 0.59375q-2.03125 0 -3.28125 -1.296875q-1.25 -1.3125 -1.25 -3.765625zm1.6875 0q0 1.859375 0.796875 2.796875q0.8125 0.921875 2.046875 0.921875q1.21875 0 2.03125 -0.921875q0.8125 -0.9375 0.8125 -2.84375q0 -1.796875 -0.8125 -2.71875q-0.8125 -0.921875 -2.03125 -0.921875q-1.234375 0 -2.046875 0.921875q-0.796875 0.90625 -0.796875 2.765625zm9.281982 4.84375l0 -9.671875l1.46875 0l0 1.46875q0.5625 -1.03125 1.03125 -1.359375q0.484375 -0.328125 1.0625 -0.328125q0.828125 0 1.6875 0.53125l-0.5625 1.515625q-0.609375 -0.359375 -1.203125 -0.359375q-0.546875 0 -0.96875 0.328125q-0.421875 0.328125 -0.609375 0.890625q-0.28125 0.875 -0.28125 1.921875l0 5.0625l-1.625 0zm17.130371 0l-1.640625 0l0 -10.453125q-0.59375 0.5625 -1.5625 1.140625q-0.953125 0.5625 -1.71875 0.84375l0 -1.59375q1.375 -0.640625 2.40625 -1.5625q1.03125 -0.921875 1.453125 -1.78125l1.0625 0l0 13.40625z" fill-rule="nonzero"/><path fill="#eeeeee" d="m602.6877 442.20828l0 0c0 -4.12265 3.342041 -7.4647217 7.4647217 -7.4647217l76.40912 0c1.9797974 0 3.878479 0.7864685 5.2783813 2.1863708c1.3999023 1.3999023 2.1863403 3.298584 2.1863403 5.278351l0 29.857971c0 4.12265 -3.342041 7.4647217 -7.4647217 7.4647217l-76.40912 0c-4.1226807 0 -7.4647217 -3.3420715 -7.4647217 -7.4647217z" fill-rule="evenodd"/><path stroke="#0000ff" stroke-width="2.0" stroke-linejoin="round" stroke-linecap="butt" d="m602.6877 442.20828l0 0c0 -4.12265 3.342041 -7.4647217 7.4647217 -7.4647217l76.40912 0c1.9797974 0 3.878479 0.7864685 5.2783813 2.1863708c1.3999023 1.3999023 2.1863403 3.298584 2.1863403 5.278351l0 29.857971c0 4.12265 -3.342041 7.4647217 -7.4647217 7.4647217l-76.40912 0c-4.1226807 0 -7.4647217 -3.3420715 -7.4647217 -7.4647217z" fill-rule="evenodd"/><path fill="#0000ff" d="m638.6091 464.05725l0 -1.875l1.875 0l0 1.875l-1.875 0zm6.234375 0l0 -1.875l1.859375 0l0 1.875l-1.859375 0zm6.203125 0l0 -1.875l1.875 0l0 1.875l-1.875 0zm5.734375 0l0 -1.875l1.875 0l0 1.875l-1.875 0z" fill-rule="nonzero"/><path fill="#eeeeee" d="m711.57086 442.23978l0 0c0 -4.12265 3.342102 -7.4647217 7.4647217 -7.4647217l76.40912 0c1.9797974 0 3.878479 0.7864685 5.2783813 2.1863708c1.3999023 1.3999023 2.1863403 3.298584 2.1863403 5.278351l0 29.857971c0 4.12265 -3.342041 7.4647217 -7.4647217 7.4647217l-76.40912 0c-4.1226196 0 -7.4647217 -3.3420715 -7.4647217 -7.4647217z" fill-rule="evenodd"/><path stroke="#0000ff" stroke-width="2.0" stroke-linejoin="round" stroke-linecap="butt" d="m711.57086 442.23978l0 0c0 -4.12265 3.342102 -7.4647217 7.4647217 -7.4647217l76.40912 0c1.9797974 0 3.878479 0.7864685 5.2783813 2.1863708c1.3999023 1.3999023 2.1863403 3.298584 2.1863403 5.278351l0 29.857971c0 4.12265 -3.342041 7.4647217 -7.4647217 7.4647217l-76.40912 0c-4.1226196 0 -7.4647217 -3.3420715 -7.4647217 -7.4647217z" fill-rule="evenodd"/><path fill="#ff0000" d="m744.8587 464.08875l-5.171875 -13.359375l1.921875 0l3.46875 9.703125q0.421875 1.171875 0.703125 2.1875q0.3125 -1.09375 0.71875 -2.1875l3.609375 -9.703125l1.796875 0l-5.234375 13.359375l-1.8125 0zm7.1623535 0l5.125 -13.359375l1.90625 0l5.46875 13.359375l-2.015625 0l-1.546875 -4.046875l-5.59375 0l-1.46875 4.046875l-1.875 0zm3.859375 -5.484375l4.53125 0l-1.40625 -3.703125q-0.625 -1.6875 -0.9375 -2.765625q-0.265625 1.28125 -0.71875 2.546875l-1.46875 3.921875zm9.9747925 5.484375l0 -13.359375l1.78125 0l0 11.78125l6.5625 0l0 1.578125l-8.34375 0z" fill-rule="nonzero"/><path fill="#000000" fill-opacity="0.0" d="m585.1457 457.13727l8.770935 0l0 0.06298828l8.772339 0" fill-rule="evenodd"/><path stroke="#0000ff" stroke-width="2.0" stroke-linejoin="round" stroke-linecap="butt" d="m585.1457 457.13727l5.543457 0" fill-rule="evenodd"/><path fill="#0000ff" stroke="#0000ff" stroke-width="2.0" stroke-linecap="butt" d="m590.6718 460.44067l9.093384 -3.2557678l-9.058716 -3.3510742z" fill-rule="evenodd"/><path fill="#000000" fill-opacity="0.0" d="m694.02625 457.13727l8.772339 0l0 0.06298828l8.770996 0" fill-rule="evenodd"/><path stroke="#0000ff" stroke-width="2.0" stroke-linejoin="round" stroke-linecap="butt" d="m694.02625 457.13727l5.543457 0" fill-rule="evenodd"/><path fill="#0000ff" stroke="#0000ff" stroke-width="2.0" stroke-linecap="butt" d="m699.55237 460.44067l9.093445 -3.2557678l-9.058777 -3.3510742z" fill-rule="evenodd"/><path fill="#eeeeee" d="m711.5656 442.20828l0 0c0 -4.12265 3.342041 -7.4647217 7.4647217 -7.4647217l76.40912 0c1.9797974 0 3.878479 0.7864685 5.2783813 2.1863708c1.3999023 1.3999023 2.1863403 3.298584 2.1863403 5.278351l0 29.857971c0 4.12265 -3.342041 7.4647217 -7.4647217 7.4647217l-76.40912 0c-4.1226807 0 -7.4647217 -3.3420715 -7.4647217 -7.4647217z" fill-rule="evenodd"/><path stroke="#0000ff" stroke-width="2.0" stroke-linejoin="round" stroke-linecap="butt" d="m711.5656 442.20828l0 0c0 -4.12265 3.342041 -7.4647217 7.4647217 -7.4647217l76.40912 0c1.9797974 0 3.878479 0.7864685 5.2783813 2.1863708c1.3999023 1.3999023 2.1863403 3.298584 2.1863403 5.278351l0 29.857971c0 4.12265 -3.342041 7.4647217 -7.4647217 7.4647217l-76.40912 0c-4.1226807 0 -7.4647217 -3.3420715 -7.4647217 -7.4647217z" fill-rule="evenodd"/><path fill="#0000ff" d="m738.13324 459.36975l1.765625 0.453125q-0.5625 2.171875 -2.0 3.328125q-1.4375 1.140625 -3.53125 1.140625q-2.15625 0 -3.515625 -0.875q-1.34375 -0.890625 -2.0625 -2.546875q-0.703125 -1.671875 -0.703125 -3.59375q0 -2.078125 0.796875 -3.625q0.796875 -1.5625 2.265625 -2.359375q1.484375 -0.8125 3.25 -0.8125q2.0 0 3.359375 1.015625q1.375 1.015625 1.90625 2.875l-1.734375 0.40625q-0.46875 -1.453125 -1.359375 -2.109375q-0.875 -0.671875 -2.203125 -0.671875q-1.546875 0 -2.578125 0.734375q-1.03125 0.734375 -1.453125 1.984375q-0.421875 1.234375 -0.421875 2.5625q0 1.703125 0.5 2.96875q0.5 1.265625 1.546875 1.90625q1.046875 0.625 2.265625 0.625q1.484375 0 2.515625 -0.859375q1.03125 -0.859375 1.390625 -2.546875zm3.1291504 -0.15625q0 -2.6875 1.484375 -3.96875q1.25 -1.078125 3.046875 -1.078125q2.0 0 3.265625 1.3125q1.265625 1.296875 1.265625 3.609375q0 1.859375 -0.5625 2.9375q-0.5625 1.0625 -1.640625 1.65625q-1.0625 0.59375 -2.328125 0.59375q-2.03125 0 -3.28125 -1.296875q-1.25 -1.3125 -1.25 -3.765625zm1.6875 0q0 1.859375 0.796875 2.796875q0.8125 0.921875 2.046875 0.921875q1.21875 0 2.03125 -0.921875q0.8125 -0.9375 0.8125 -2.84375q0 -1.796875 -0.8125 -2.71875q-0.8125 -0.921875 -2.03125 -0.921875q-1.234375 0 -2.046875 0.921875q-0.796875 0.90625 -0.796875 2.765625zm9.250732 4.84375l0 -13.359375l1.640625 0l0 13.359375l-1.640625 0zm3.5823364 -4.84375q0 -2.6875 1.484375 -3.96875q1.25 -1.078125 3.046875 -1.078125q2.0 0 3.265625 1.3125q1.265625 1.296875 1.265625 3.609375q0 1.859375 -0.5625 2.9375q-0.5625 1.0625 -1.640625 1.65625q-1.0625 0.59375 -2.328125 0.59375q-2.03125 0 -3.28125 -1.296875q-1.25 -1.3125 -1.25 -3.765625zm1.6875 0q0 1.859375 0.796875 2.796875q0.8125 0.921875 2.046875 0.921875q1.21875 0 2.03125 -0.921875q0.8125 -0.9375 0.8125 -2.84375q0 -1.796875 -0.8125 -2.71875q-0.8125 -0.921875 -2.03125 -0.921875q-1.234375 0 -2.046875 0.921875q-0.796875 0.90625 -0.796875 2.765625zm9.281982 4.84375l0 -9.671875l1.46875 0l0 1.46875q0.5625 -1.03125 1.03125 -1.359375q0.484375 -0.328125 1.0625 -0.328125q0.828125 0 1.6875 0.53125l-0.5625 1.515625q-0.609375 -0.359375 -1.203125 -0.359375q-0.546875 0 -0.96875 0.328125q-0.421875 0.328125 -0.609375 0.890625q-0.28125 0.875 -0.28125 1.921875l0 5.0625l-1.625 0zm11.41156 0l0 -9.671875l1.46875 0l0 1.375q1.0625 -1.59375 3.078125 -1.59375q0.875 0 1.609375 0.3125q0.734375 0.3125 1.09375 0.828125q0.375 0.5 0.515625 1.203125q0.09375 0.453125 0.09375 1.59375l0 5.953125l-1.640625 0l0 -5.890625q0 -1.0 -0.203125 -1.484375q-0.1875 -0.5 -0.671875 -0.796875q-0.484375 -0.296875 -1.140625 -0.296875q-1.046875 0 -1.8125 0.671875q-0.75 0.65625 -0.75 2.515625l0 5.28125l-1.640625 0z" fill-rule="nonzero"/><path fill="#000000" fill-opacity="0.0" d="m802.9094 201.80917l24.999817 0l0 -47.3938l-288.43286 0l0 25.000107" fill-rule="evenodd"/><path stroke="#ff9900" stroke-width="2.0" stroke-linejoin="round" stroke-linecap="butt" d="m802.9094 201.80917l24.999878 0l0 -47.3938l-288.43292 0l0 13.000107" fill-rule="evenodd"/><path fill="#ff9900" stroke="#ff9900" stroke-width="2.0" stroke-linecap="butt" d="m536.1729 167.41548l3.3034668 9.076187l3.3034668 -9.076187z" fill-rule="evenodd"/><path fill="#000000" fill-opacity="0.0" d="m802.9068 329.4575l24.999817 0l0 -47.39383l-288.43286 0l0 25.000122" fill-rule="evenodd"/><path stroke="#6aa84f" stroke-width="2.0" stroke-linejoin="round" stroke-linecap="butt" d="m802.9068 329.45746l24.999878 0l0 -47.3938l-288.43292 0l0 13.000122" fill-rule="evenodd"/><path fill="#6aa84f" stroke="#6aa84f" stroke-width="2.0" stroke-linecap="butt" d="m536.1703 295.06378l3.3034668 9.076172l3.3034668 -9.076172z" fill-rule="evenodd"/><path fill="#000000" fill-opacity="0.0" d="m802.9042 457.13727l24.999817 0l0 -47.3938l-288.43286 0l0 25.000092" fill-rule="evenodd"/><path stroke="#0000ff" stroke-width="2.0" stroke-linejoin="round" stroke-linecap="butt" d="m802.9042 457.13727l24.999878 0l0 -47.3938l-288.43292 0l0 13.000092" fill-rule="evenodd"/><path fill="#0000ff" stroke="#0000ff" stroke-width="2.0" stroke-linecap="butt" d="m536.16766 422.74356l3.3034668 9.076202l3.3034668 -9.076202z" fill-rule="evenodd"/><path fill="#000000" fill-opacity="0.0" d="m460.87402 201.82414l16.469147 0l0 0.06300354l16.475739 0" fill-rule="evenodd"/><path stroke="#ff9900" stroke-width="2.0" stroke-linejoin="round" stroke-linecap="butt" stroke-dasharray="8.0,6.0,2.0,6.0" d="m460.87402 201.82414l16.469147 0l0 0.06300354l16.475739 0" fill-rule="evenodd"/><path fill="#000000" fill-opacity="0.0" d="m460.8609 329.458l16.474396 0l0 0.06298828l16.47049 0" fill-rule="evenodd"/><path stroke="#6aa84f" stroke-width="2.0" stroke-linejoin="round" stroke-linecap="butt" stroke-dasharray="8.0,6.0,2.0,6.0" d="m460.8609 329.458l16.474396 0l0 0.06298828l16.47049 0" fill-rule="evenodd"/><path fill="#000000" fill-opacity="0.0" d="m460.8609 457.09317l16.473083 0l0 0.06298828l16.471802 0" fill-rule="evenodd"/><path stroke="#0000ff" stroke-width="2.0" stroke-linejoin="round" stroke-linecap="butt" stroke-dasharray="8.0,6.0,2.0,6.0" d="m460.8609 457.09317l16.473083 0l0 0.06298828l16.471802 0" fill-rule="evenodd"/><path fill="#000000" fill-opacity="0.0" d="m415.1916 111.749344l0 26.257751l0.0630188 0l0 26.246185" fill-rule="evenodd"/><path stroke="#000000" stroke-width="2.0" stroke-linejoin="round" stroke-linecap="butt" d="m415.1916 111.749344l0 26.257736l0.0630188 0l0 14.246201" fill-rule="evenodd"/><path fill="#000000" stroke="#000000" stroke-width="2.0" stroke-linecap="butt" d="m411.95114 152.25328l3.3034668 9.076202l3.3034363 -9.076202z" fill-rule="evenodd"/><path fill="#000000" fill-opacity="0.0" d="m415.2047 239.38321l0 26.257751l0.0630188 0l0 26.246185" fill-rule="evenodd"/><path stroke="#000000" stroke-width="2.0" stroke-linejoin="round" stroke-linecap="butt" d="m415.2047 239.38321l0 26.257751l0.0630188 0l0 14.246185" fill-rule="evenodd"/><path fill="#000000" stroke="#000000" stroke-width="2.0" stroke-linecap="butt" d="m411.96426 279.88715l3.3034668 9.076202l3.3034363 -9.076202z" fill-rule="evenodd"/><path fill="#000000" fill-opacity="0.0" d="m415.1916 367.01706l0 26.25827l0.0630188 0l0 26.245667" fill-rule="evenodd"/><path stroke="#000000" stroke-width="2.0" stroke-linejoin="round" stroke-linecap="butt" d="m415.1916 367.01706l0 26.25827l0.0630188 0l0 14.2456665" fill-rule="evenodd"/><path fill="#000000" stroke="#000000" stroke-width="2.0" stroke-linecap="butt" d="m411.95114 407.521l3.3034668 9.076202l3.3034363 -9.076202z" fill-rule="evenodd"/><path fill="#000000" fill-opacity="0.0" d="m415.1916 494.65222l0 24.998535l-84.700775 0l0 -508.01736l84.763794 0l0 25.003078" fill-rule="evenodd"/><path stroke="#000000" stroke-width="2.0" stroke-linejoin="round" stroke-linecap="butt" d="m415.1916 494.65222l0 24.998474l-84.700775 0l0 -508.0173l84.763794 0l0 13.003078" fill-rule="evenodd"/><path fill="#000000" stroke="#000000" stroke-width="2.0" stroke-linecap="butt" d="m411.95114 24.636484l3.3034668 9.076193l3.3034363 -9.076193z" fill-rule="evenodd"/><path fill="#a2c4c9" d="m210.23885 179.61049l0 0c0 -6.8710785 5.570114 -12.441193 12.441193 -12.441193l49.76329 0l0 0c3.299591 0 6.464081 1.3107605 8.797241 3.6439362c2.333191 2.3331757 3.6439514 5.49765 3.6439514 8.797256l0 172.06248c0 6.8710938 -5.5701294 12.441193 -12.441193 12.441193l-49.76329 0c-6.8710785 0 -12.441193 -5.570099 -12.441193 -12.441193z" fill-rule="evenodd"/><path stroke="#000000" stroke-width="3.0" stroke-linejoin="round" stroke-linecap="butt" d="m210.23885 179.61049l0 0c0 -6.8710785 5.570114 -12.441193 12.441193 -12.441193l49.76329 0l0 0c3.299591 0 6.464081 1.3107605 8.797241 3.6439362c2.333191 2.3331757 3.6439514 5.49765 3.6439514 8.797256l0 172.06248c0 6.8710938 -5.5701294 12.441193 -12.441193 12.441193l-49.76329 0c-6.8710785 0 -12.441193 -5.570099 -12.441193 -12.441193z" fill-rule="evenodd"/><path fill="#000000" d="m224.27338 272.56174l0 -13.359375l2.65625 0l3.15625 9.453125q0.4375 1.328125 0.640625 1.984375q0.234375 -0.734375 0.703125 -2.140625l3.203125 -9.296875l2.375 0l0 13.359375l-1.703125 0l0 -11.171875l-3.875 11.171875l-1.59375 0l-3.859375 -11.375l0 11.375l-1.703125 0zm14.118927 0l5.125 -13.359375l1.90625 0l5.46875 13.359375l-2.015625 0l-1.546875 -4.046875l-5.59375 0l-1.46875 4.046875l-1.875 0zm3.859375 -5.484375l4.53125 0l-1.40625 -3.703125q-0.625 -1.6875 -0.9375 -2.765625q-0.265625 1.28125 -0.71875 2.546875l-1.46875 3.921875zm10.349823 5.484375l0 -13.359375l1.765625 0l0 13.359375l-1.765625 0zm4.8707886 0l0 -13.359375l1.8125 0l7.015625 10.484375l0 -10.484375l1.6875 0l0 13.359375l-1.8125 0l-7.015625 -10.5l0 10.5l-1.6875 0z" fill-rule="nonzero"/><path fill="#000000" fill-opacity="0.0" d="m284.88452 265.64172l45.66928 0" fill-rule="evenodd"/><path stroke="#000000" stroke-width="2.0" stroke-linejoin="round" stroke-linecap="butt" stroke-dasharray="8.0,6.0,2.0,6.0" d="m284.88452 265.64172l45.66928 0" fill-rule="evenodd"/><path fill="#000000" fill-opacity="0.0" d="m170.60367 9.988189l0 511.3071" fill-rule="evenodd"/><path stroke="#000000" stroke-width="3.0" stroke-linejoin="round" stroke-linecap="butt" d="m170.60367 9.988189l0 493.3071" fill-rule="evenodd"/><path fill="#000000" stroke="#000000" stroke-width="3.0" stroke-linecap="butt" d="m165.64848 503.2953l4.955185 13.614258l4.9552 -13.614258z" fill-rule="evenodd"/><path fill="#000000" fill-opacity="0.0" d="m465.30185 524.5289l366.1102 0" fill-rule="evenodd"/><path stroke="#000000" stroke-width="3.0" stroke-linejoin="round" stroke-linecap="butt" d="m465.30185 524.5289l348.1102 0" fill-rule="evenodd"/><path fill="#000000" stroke="#000000" stroke-width="3.0" stroke-linecap="butt" d="m813.41205 529.4841l13.614319 -4.9552l-13.614319 -4.9552z" fill-rule="evenodd"/><path fill="#000000" fill-opacity="0.0" d="m558.08136 491.24014l180.56696 0l0 38.771698l-180.56696 0z" fill-rule="evenodd"/><path fill="#000000" d="m583.94293 513.1158l1.390625 -0.21875q0.109375 0.84375 0.640625 1.296875q0.546875 0.4375 1.5 0.4375q0.96875 0 1.4375 -0.390625q0.46875 -0.40625 0.46875 -0.9375q0 -0.46875 -0.40625 -0.75q-0.296875 -0.1875 -1.4375 -0.46875q-1.546875 -0.390625 -2.15625 -0.671875q-0.59375 -0.296875 -0.90625 -0.796875q-0.296875 -0.5 -0.296875 -1.109375q0 -0.5625 0.25 -1.03125q0.25 -0.46875 0.6875 -0.78125q0.328125 -0.25 0.890625 -0.40625q0.578125 -0.171875 1.21875 -0.171875q0.984375 0 1.71875 0.28125q0.734375 0.28125 1.078125 0.765625q0.359375 0.46875 0.5 1.28125l-1.375 0.1875q-0.09375 -0.640625 -0.546875 -1.0q-0.453125 -0.359375 -1.265625 -0.359375q-0.96875 0 -1.390625 0.328125q-0.40625 0.3125 -0.40625 0.734375q0 0.28125 0.171875 0.5q0.171875 0.21875 0.53125 0.375q0.21875 0.078125 1.25 0.359375q1.484375 0.390625 2.078125 0.65625q0.59375 0.25 0.921875 0.734375q0.34375 0.484375 0.34375 1.203125q0 0.703125 -0.421875 1.328125q-0.40625 0.609375 -1.1875 0.953125q-0.765625 0.34375 -1.734375 0.34375q-1.625 0 -2.46875 -0.671875q-0.84375 -0.671875 -1.078125 -2.0zm8.5625 2.484375l0 -11.453125l1.40625 0l0 4.109375q0.984375 -1.140625 2.484375 -1.140625q0.921875 0 1.59375 0.359375q0.6875 0.359375 0.96875 1.0q0.296875 0.640625 0.296875 1.859375l0 5.265625l-1.40625 0l0 -5.265625q0 -1.046875 -0.453125 -1.53125q-0.453125 -0.484375 -1.296875 -0.484375q-0.625 0 -1.171875 0.328125q-0.546875 0.328125 -0.78125 0.890625q-0.234375 0.546875 -0.234375 1.515625l0 4.546875l-1.40625 0zm8.3671875 -4.15625q0 -2.296875 1.28125 -3.40625q1.078125 -0.921875 2.609375 -0.921875q1.71875 0 2.796875 1.125q1.09375 1.109375 1.09375 3.09375q0 1.59375 -0.484375 2.515625q-0.484375 0.921875 -1.40625 1.4375q-0.90625 0.5 -2.0 0.5q-1.734375 0 -2.8125 -1.109375q-1.078125 -1.125 -1.078125 -3.234375zm1.453125 0q0 1.59375 0.6875 2.390625q0.703125 0.796875 1.75 0.796875q1.046875 0 1.734375 -0.796875q0.703125 -0.796875 0.703125 -2.4375q0 -1.53125 -0.703125 -2.328125q-0.6875 -0.796875 -1.734375 -0.796875q-1.046875 0 -1.75 0.796875q-0.6875 0.78125 -0.6875 2.375zm7.9609375 4.15625l0 -8.296875l1.265625 0l0 1.25q0.484375 -0.875 0.890625 -1.15625q0.40625 -0.28125 0.90625 -0.28125q0.703125 0 1.4375 0.453125l-0.484375 1.296875q-0.515625 -0.296875 -1.03125 -0.296875q-0.453125 0 -0.828125 0.28125q-0.359375 0.265625 -0.515625 0.765625q-0.234375 0.75 -0.234375 1.640625l0 4.34375l-1.40625 0zm8.40625 -1.265625l0.203125 1.25q-0.59375 0.125 -1.0625 0.125q-0.765625 0 -1.1875 -0.234375q-0.421875 -0.25 -0.59375 -0.640625q-0.171875 -0.40625 -0.171875 -1.671875l0 -4.765625l-1.03125 0l0 -1.09375l1.03125 0l0 -2.0625l1.40625 -0.84375l0 2.90625l1.40625 0l0 1.09375l-1.40625 0l0 4.84375q0 0.609375 0.0625 0.78125q0.078125 0.171875 0.25 0.28125q0.171875 0.09375 0.484375 0.09375q0.234375 0 0.609375 -0.0625zm5.9375 1.265625l0 -11.453125l4.296875 0q1.3125 0 2.109375 0.34375q0.796875 0.34375 1.234375 1.078125q0.453125 0.71875 0.453125 1.5q0 0.734375 -0.40625 1.390625q-0.390625 0.640625 -1.1875 1.046875q1.03125 0.296875 1.59375 1.03125q0.5625 0.734375 0.5625 1.734375q0 0.8125 -0.34375 1.5q-0.34375 0.6875 -0.84375 1.0625q-0.5 0.375 -1.25 0.578125q-0.75 0.1875 -1.84375 0.1875l-4.375 0zm1.515625 -6.640625l2.484375 0q1.0 0 1.4375 -0.140625q0.578125 -0.171875 0.875 -0.5625q0.296875 -0.40625 0.296875 -1.0q0 -0.578125 -0.28125 -1.0q-0.265625 -0.4375 -0.78125 -0.59375q-0.5 -0.171875 -1.734375 -0.171875l-2.296875 0l0 3.46875zm0 5.28125l2.859375 0q0.734375 0 1.03125 -0.046875q0.515625 -0.09375 0.859375 -0.3125q0.359375 -0.21875 0.578125 -0.640625q0.234375 -0.421875 0.234375 -0.96875q0 -0.640625 -0.328125 -1.109375q-0.328125 -0.46875 -0.90625 -0.65625q-0.578125 -0.203125 -1.671875 -0.203125l-2.65625 0l0 3.9375zm14.484375 1.359375l0 -1.21875q-0.96875 1.40625 -2.640625 1.40625q-0.734375 0 -1.375 -0.28125q-0.625 -0.28125 -0.9375 -0.703125q-0.3125 -0.4375 -0.4375 -1.046875q-0.078125 -0.421875 -0.078125 -1.3125l0 -5.140625l1.40625 0l0 4.59375q0 1.109375 0.078125 1.484375q0.140625 0.5625 0.5625 0.875q0.4375 0.3125 1.0625 0.3125q0.640625 0 1.1875 -0.3125q0.5625 -0.328125 0.78125 -0.890625q0.234375 -0.5625 0.234375 -1.625l0 -4.4375l1.40625 0l0 8.296875l-1.25 0zm6.5234375 -1.265625l0.203125 1.25q-0.59375 0.125 -1.0625 0.125q-0.765625 0 -1.1875 -0.234375q-0.421875 -0.25 -0.59375 -0.640625q-0.171875 -0.40625 -0.171875 -1.671875l0 -4.765625l-1.03125 0l0 -1.09375l1.03125 0l0 -2.0625l1.40625 -0.84375l0 2.90625l1.40625 0l0 1.09375l-1.40625 0l0 4.84375q0 0.609375 0.0625 0.78125q0.078125 0.171875 0.25 0.28125q0.171875 0.09375 0.484375 0.09375q0.234375 0 0.609375 -0.0625zm4.4453125 0l0.203125 1.25q-0.59375 0.125 -1.0625 0.125q-0.765625 0 -1.1875 -0.234375q-0.421875 -0.25 -0.59375 -0.640625q-0.171875 -0.40625 -0.171875 -1.671875l0 -4.765625l-1.03125 0l0 -1.09375l1.03125 0l0 -2.0625l1.40625 -0.84375l0 2.90625l1.40625 0l0 1.09375l-1.40625 0l0 4.84375q0 0.609375 0.0625 0.78125q0.078125 0.171875 0.25 0.28125q0.171875 0.09375 0.484375 0.09375q0.234375 0 0.609375 -0.0625zm0.8515625 -2.890625q0 -2.296875 1.28125 -3.40625q1.078125 -0.921875 2.609375 -0.921875q1.71875 0 2.796875 1.125q1.09375 1.109375 1.09375 3.09375q0 1.59375 -0.484375 2.515625q-0.484375 0.921875 -1.40625 1.4375q-0.90625 0.5 -2.0 0.5q-1.734375 0 -2.8125 -1.109375q-1.078125 -1.125 -1.078125 -3.234375zm1.453125 0q0 1.59375 0.6875 2.390625q0.703125 0.796875 1.75 0.796875q1.046875 0 1.734375 -0.796875q0.703125 -0.796875 0.703125 -2.4375q0 -1.53125 -0.703125 -2.328125q-0.6875 -0.796875 -1.734375 -0.796875q-1.046875 0 -1.75 0.796875q-0.6875 0.78125 -0.6875 2.375zm7.9765625 4.15625l0 -8.296875l1.265625 0l0 1.171875q0.90625 -1.359375 2.640625 -1.359375q0.75 0 1.375 0.265625q0.625 0.265625 0.9375 0.703125q0.3125 0.4375 0.4375 1.046875q0.078125 0.390625 0.078125 1.359375l0 5.109375l-1.40625 0l0 -5.046875q0 -0.859375 -0.171875 -1.28125q-0.15625 -0.4375 -0.578125 -0.6875q-0.40625 -0.25 -0.96875 -0.25q-0.90625 0 -1.5625 0.578125q-0.640625 0.5625 -0.640625 2.15625l0 4.53125l-1.40625 0zm13.34375 3.1875l0 -11.484375l1.28125 0l0 1.078125q0.453125 -0.640625 1.015625 -0.953125q0.578125 -0.3125 1.390625 -0.3125q1.0625 0 1.875 0.546875q0.8125 0.546875 1.21875 1.546875q0.421875 0.984375 0.421875 2.171875q0 1.28125 -0.46875 2.296875q-0.453125 1.015625 -1.328125 1.5625q-0.859375 0.546875 -1.828125 0.546875q-0.703125 0 -1.265625 -0.296875q-0.546875 -0.296875 -0.90625 -0.75l0 4.046875l-1.40625 0zm1.265625 -7.296875q0 1.609375 0.640625 2.375q0.65625 0.765625 1.578125 0.765625q0.9375 0 1.609375 -0.796875q0.671875 -0.796875 0.671875 -2.453125q0 -1.59375 -0.65625 -2.375q-0.65625 -0.796875 -1.5625 -0.796875q-0.890625 0 -1.59375 0.84375q-0.6875 0.84375 -0.6875 2.4375zm7.6171875 4.109375l0 -8.296875l1.265625 0l0 1.25q0.484375 -0.875 0.890625 -1.15625q0.40625 -0.28125 0.90625 -0.28125q0.703125 0 1.4375 0.453125l-0.484375 1.296875q-0.515625 -0.296875 -1.03125 -0.296875q-0.453125 0 -0.828125 0.28125q-0.359375 0.265625 -0.515625 0.765625q-0.234375 0.75 -0.234375 1.640625l0 4.34375l-1.40625 0zm11.015625 -2.671875l1.453125 0.171875q-0.34375 1.28125 -1.28125 1.984375q-0.921875 0.703125 -2.359375 0.703125q-1.828125 0 -2.890625 -1.125q-1.0625 -1.125 -1.0625 -3.140625q0 -2.09375 1.078125 -3.25q1.078125 -1.15625 2.796875 -1.15625q1.65625 0 2.703125 1.140625q1.0625 1.125 1.0625 3.171875q0 0.125 0 0.375l-6.1875 0q0.078125 1.375 0.765625 2.109375q0.703125 0.71875 1.734375 0.71875q0.78125 0 1.328125 -0.40625q0.546875 -0.40625 0.859375 -1.296875zm-4.609375 -2.28125l4.625 0q-0.09375 -1.046875 -0.53125 -1.5625q-0.671875 -0.8125 -1.734375 -0.8125q-0.96875 0 -1.640625 0.65625q-0.65625 0.640625 -0.71875 1.71875zm7.2734375 2.46875l1.390625 -0.21875q0.109375 0.84375 0.640625 1.296875q0.546875 0.4375 1.5 0.4375q0.96875 0 1.4375 -0.390625q0.46875 -0.40625 0.46875 -0.9375q0 -0.46875 -0.40625 -0.75q-0.296875 -0.1875 -1.4375 -0.46875q-1.546875 -0.390625 -2.15625 -0.671875q-0.59375 -0.296875 -0.90625 -0.796875q-0.296875 -0.5 -0.296875 -1.109375q0 -0.5625 0.25 -1.03125q0.25 -0.46875 0.6875 -0.78125q0.328125 -0.25 0.890625 -0.40625q0.578125 -0.171875 1.21875 -0.171875q0.984375 0 1.71875 0.28125q0.734375 0.28125 1.078125 0.765625q0.359375 0.46875 0.5 1.28125l-1.375 0.1875q-0.09375 -0.640625 -0.546875 -1.0q-0.453125 -0.359375 -1.265625 -0.359375q-0.96875 0 -1.390625 0.328125q-0.40625 0.3125 -0.40625 0.734375q0 0.28125 0.171875 0.5q0.171875 0.21875 0.53125 0.375q0.21875 0.078125 1.25 0.359375q1.484375 0.390625 2.078125 0.65625q0.59375 0.25 0.921875 0.734375q0.34375 0.484375 0.34375 1.203125q0 0.703125 -0.421875 1.328125q-0.40625 0.609375 -1.1875 0.953125q-0.765625 0.34375 -1.734375 0.34375q-1.625 0 -2.46875 -0.671875q-0.84375 -0.671875 -1.078125 -2.0zm8.0 0l1.390625 -0.21875q0.109375 0.84375 0.640625 1.296875q0.546875 0.4375 1.5 0.4375q0.96875 0 1.4375 -0.390625q0.46875 -0.40625 0.46875 -0.9375q0 -0.46875 -0.40625 -0.75q-0.296875 -0.1875 -1.4375 -0.46875q-1.546875 -0.390625 -2.15625 -0.671875q-0.59375 -0.296875 -0.90625 -0.796875q-0.296875 -0.5 -0.296875 -1.109375q0 -0.5625 0.25 -1.03125q0.25 -0.46875 0.6875 -0.78125q0.328125 -0.25 0.890625 -0.40625q0.578125 -0.171875 1.21875 -0.171875q0.984375 0 1.71875 0.28125q0.734375 0.28125 1.078125 0.765625q0.359375 0.46875 0.5 1.28125l-1.375 0.1875q-0.09375 -0.640625 -0.546875 -1.0q-0.453125 -0.359375 -1.265625 -0.359375q-0.96875 0 -1.390625 0.328125q-0.40625 0.3125 -0.40625 0.734375q0 0.28125 0.171875 0.5q0.171875 0.21875 0.53125 0.375q0.21875 0.078125 1.25 0.359375q1.484375 0.390625 2.078125 0.65625q0.59375 0.25 0.921875 0.734375q0.34375 0.484375 0.34375 1.203125q0 0.703125 -0.421875 1.328125q-0.40625 0.609375 -1.1875 0.953125q-0.765625 0.34375 -1.734375 0.34375q-1.625 0 -2.46875 -0.671875q-0.84375 -0.671875 -1.078125 -2.0z" fill-rule="nonzero"/><path fill="#000000" fill-opacity="0.0" d="m170.60367 173.31102l0 184.66142l-42.015747 0l0 -184.66142z" fill-rule="evenodd"/><path fill="#000000" d="m143.68367 194.2311l13.359375 0l0 1.640625l-13.359375 0l0 -1.640625zm4.84375 3.5823212q2.6875 0 3.96875 1.484375q1.078125 1.25 1.078125 3.046875q0 2.0 -1.3125 3.265625q-1.296875 1.265625 -3.609375 1.265625q-1.859375 0 -2.9375 -0.5625q-1.0625 -0.5625 -1.65625 -1.640625q-0.59375 -1.0625 -0.59375 -2.328125q0 -2.03125 1.296875 -3.28125q1.3125 -1.25 3.765625 -1.25zm0 1.6875q-1.859375 0 -2.796875 0.796875q-0.921875 0.8125 -0.921875 2.046875q0 1.21875 0.921875 2.03125q0.9375 0.8125 2.84375 0.8125q1.796875 0 2.71875 -0.8125q0.921875 -0.8125 0.921875 -2.03125q0 -1.234375 -0.921875 -2.046875q-0.90625 -0.796875 -2.765625 -0.796875zm-4.84375 9.297592l9.671875 0l0 1.46875l-1.375 0q1.59375 1.0625 1.59375 3.078125q0 0.875 -0.3125 1.609375q-0.3125 0.734375 -0.828125 1.09375q-0.5 0.375 -1.203125 0.515625q-0.453125 0.09375 -1.59375 0.09375l-5.953125 0l0 -1.640625l5.890625 0q1.0 0 1.484375 -0.203125q0.5 -0.1875 0.796875 -0.671875q0.296875 -0.484375 0.296875 -1.140625q0 -1.046875 -0.671875 -1.8125q-0.65625 -0.75 -2.515625 -0.75l-5.28125 0l0 -1.640625zm-0.796875 10.063217l-0.234375 1.59375q-0.75 0.109375 -1.078125 0.5625q-0.453125 0.609375 -0.453125 1.671875q0 1.140625 0.453125 1.75q0.453125 0.625 1.265625 0.84375q0.5 0.125 2.109375 0.109375q-1.265625 -1.0625 -1.265625 -2.671875q0 -2.0 1.4375 -3.09375q1.4375 -1.09375 3.453125 -1.09375q1.390625 0 2.5625 0.5q1.171875 0.515625 1.796875 1.453125q0.640625 0.953125 0.640625 2.25q0 1.703125 -1.375 2.8125l1.15625 0l0 1.515625l-8.359375 0q-2.265625 0 -3.203125 -0.46875q-0.9375 -0.453125 -1.484375 -1.453125q-0.546875 -0.984375 -0.546875 -2.453125q0 -1.71875 0.78125 -2.796875q0.765625 -1.0625 2.34375 -1.03125zm5.8125 1.359375q-1.90625 0 -2.78125 0.75q-0.875 0.765625 -0.875 1.90625q0 1.125 0.859375 1.890625q0.875 0.765625 2.734375 0.765625q1.78125 0 2.671875 -0.796875q0.90625 -0.78125 0.90625 -1.890625q0 -1.09375 -0.890625 -1.859375q-0.875 -0.765625 -2.625 -0.765625zm-5.015625 14.637146l13.359375 0l0 5.015625q0 1.53125 -0.40625 2.453125q-0.40625 0.921875 -1.25 1.4375q-0.84375 0.53125 -1.765625 0.53125q-0.859375 0 -1.625 -0.46875q-0.75 -0.453125 -1.203125 -1.390625q-0.359375 1.203125 -1.21875 1.859375q-0.859375 0.65625 -2.015625 0.65625q-0.9375 0 -1.75 -0.40625q-0.796875 -0.390625 -1.234375 -0.984375q-0.4375 -0.578125 -0.671875 -1.453125q-0.21875 -0.875 -0.21875 -2.15625l0 -5.09375zm7.75 1.78125l0 2.875q0 1.1875 0.140625 1.6875q0.203125 0.671875 0.671875 1.015625q0.46875 0.34375 1.171875 0.34375q0.65625 0 1.15625 -0.328125q0.515625 -0.3125 0.703125 -0.90625q0.1875 -0.59375 0.1875 -2.03125l0 -2.65625l-4.03125 0zm-6.171875 0l0 3.3125q0 0.859375 0.0625 1.203125q0.109375 0.609375 0.359375 1.015625q0.265625 0.421875 0.75 0.6875q0.484375 0.265625 1.125 0.265625q0.75 0 1.296875 -0.390625q0.546875 -0.375 0.765625 -1.0625q0.234375 -0.671875 0.234375 -1.953125l0 -3.078125l-4.59375 0zm-1.578125 16.865448l1.421875 0q-1.640625 -1.125 -1.640625 -3.0625q0 -0.859375 0.328125 -1.609375q0.328125 -0.734375 0.828125 -1.09375q0.5 -0.359375 1.21875 -0.5q0.46875 -0.109375 1.53125 -0.109375l5.984375 0l0 1.640625l-5.359375 0q-1.28125 0 -1.734375 0.109375q-0.640625 0.15625 -1.015625 0.65625q-0.375 0.5 -0.375 1.234375q0 0.734375 0.375 1.375q0.390625 0.65625 1.03125 0.921875q0.65625 0.265625 1.890625 0.265625l5.1875 0l0 1.640625l-9.671875 0l0 -1.46875zm1.46875 7.6257324l-1.453125 0.234375q-0.140625 -0.6875 -0.140625 -1.234375q0 -0.890625 0.28125 -1.390625q0.28125 -0.484375 0.734375 -0.6875q0.46875 -0.203125 1.9375 -0.203125l5.578125 0l0 -1.203125l1.265625 0l0 1.203125l2.390625 0l0.984375 1.625l-3.375 0l0 1.65625l-1.265625 0l0 -1.65625l-5.671875 0q-0.6875 0 -0.890625 0.078125q-0.203125 0.09375 -0.328125 0.28125q-0.109375 0.203125 -0.109375 0.578125q0 0.265625 0.0625 0.71875zm0 5.1832886l-1.453125 0.234375q-0.140625 -0.6875 -0.140625 -1.234375q0 -0.890625 0.28125 -1.390625q0.28125 -0.484375 0.734375 -0.6875q0.46875 -0.203125 1.9375 -0.203125l5.578125 0l0 -1.203125l1.265625 0l0 1.203125l2.390625 0l0.984375 1.625l-3.375 0l0 1.65625l-1.265625 0l0 -1.65625l-5.671875 0q-0.6875 0 -0.890625 0.078125q-0.203125 0.09375 -0.328125 0.28125q-0.109375 0.203125 -0.109375 0.578125q0 0.265625 0.0625 0.71875zm3.375 0.9958191q2.6875 0 3.96875 1.484375q1.078125 1.25 1.078125 3.046875q0 2.0 -1.3125 3.265625q-1.296875 1.265625 -3.609375 1.265625q-1.859375 0 -2.9375 -0.5625q-1.0625 -0.5625 -1.65625 -1.640625q-0.59375 -1.0625 -0.59375 -2.328125q0 -2.03125 1.296875 -3.28125q1.3125 -1.25 3.765625 -1.25zm0 1.6875q-1.859375 0 -2.796875 0.796875q-0.921875 0.8125 -0.921875 2.046875q0 1.21875 0.921875 2.03125q0.9375 0.8125 2.84375 0.8125q1.796875 0 2.71875 -0.8125q0.921875 -0.8125 0.921875 -2.03125q0 -1.234375 -0.921875 -2.046875q-0.90625 -0.796875 -2.765625 -0.796875zm-4.84375 9.297577l9.671875 0l0 1.46875l-1.375 0q1.59375 1.0625 1.59375 3.078125q0 0.875 -0.3125 1.609375q-0.3125 0.734375 -0.828125 1.09375q-0.5 0.375 -1.203125 0.515625q-0.453125 0.09375 -1.59375 0.09375l-5.953125 0l0 -1.640625l5.890625 0q1.0 0 1.484375 -0.203125q0.5 -0.1875 0.796875 -0.671875q0.296875 -0.484375 0.296875 -1.140625q0 -1.046875 -0.671875 -1.8125q-0.65625 -0.75 -2.515625 -0.75l-5.28125 0l0 -1.640625zm-3.703125 15.559021l13.375 0l0 1.484375l-1.25 0q0.734375 0.53125 1.09375 1.1875q0.375 0.671875 0.375 1.625q0 1.234375 -0.640625 2.171875q-0.625 0.953125 -1.796875 1.4375q-1.15625 0.484375 -2.546875 0.484375q-1.484375 0 -2.671875 -0.53125q-1.1875 -0.53125 -1.828125 -1.546875q-0.625 -1.015625 -0.625 -2.140625q0 -0.8125 0.34375 -1.46875q0.34375 -0.65625 0.875 -1.0625l-4.703125 0l0 -1.640625zm8.484375 1.484375q-1.859375 0 -2.765625 0.75q-0.890625 0.765625 -0.890625 1.828125q0 1.09375 0.921875 1.875q0.9375 0.78125 2.875 0.78125q1.84375 0 2.765625 -0.765625q0.921875 -0.75 0.921875 -1.8125q0 -1.046875 -0.984375 -1.859375q-0.96875 -0.796875 -2.84375 -0.796875zm-4.78125 8.875732l9.671875 0l0 1.46875l-1.46875 0q1.03125 0.5625 1.359375 1.03125q0.328125 0.484375 0.328125 1.0625q0 0.828125 -0.53125 1.6875l-1.515625 -0.5625q0.359375 -0.609375 0.359375 -1.203125q0 -0.546875 -0.328125 -0.96875q-0.328125 -0.421875 -0.890625 -0.609375q-0.875 -0.28125 -1.921875 -0.28125l-5.0625 0l0 -1.625zm3.109375 12.853302l-0.203125 1.6875q-1.484375 -0.40625 -2.3125 -1.484375q-0.8125 -1.078125 -0.8125 -2.765625q0 -2.125 1.296875 -3.375q1.3125 -1.234375 3.671875 -1.234375q2.453125 0 3.796875 1.25q1.34375 1.265625 1.34375 3.265625q0 1.9375 -1.328125 3.15625q-1.3125 1.234375 -3.703125 1.234375q-0.15625 0 -0.4375 0l0 -7.21875q-1.59375 0.09375 -2.453125 0.90625q-0.84375 0.8125 -0.84375 2.015625q0 0.90625 0.46875 1.546875q0.484375 0.640625 1.515625 1.015625zm2.65625 -5.390625l0 5.40625q1.21875 -0.109375 1.828125 -0.625q0.953125 -0.78125 0.953125 -2.03125q0 -1.125 -0.765625 -1.90625q-0.75 -0.765625 -2.015625 -0.84375zm-2.875 8.485077l0.25 1.625q-0.96875 0.125 -1.5 0.75q-0.515625 0.625 -0.515625 1.75q0 1.125 0.453125 1.671875q0.46875 0.546875 1.09375 0.546875q0.546875 0 0.875 -0.484375q0.21875 -0.328125 0.546875 -1.671875q0.46875 -1.8125 0.796875 -2.515625q0.328125 -0.6875 0.90625 -1.046875q0.59375 -0.359375 1.3125 -0.359375q0.640625 0 1.1875 0.296875q0.5625 0.296875 0.921875 0.8125q0.28125 0.375 0.46875 1.03125q0.203125 0.671875 0.203125 1.421875q0 1.140625 -0.328125 2.0q-0.328125 0.859375 -0.890625 1.265625q-0.5625 0.421875 -1.5 0.578125l-0.21875 -1.609375q0.75 -0.109375 1.171875 -0.640625q0.421875 -0.515625 0.421875 -1.46875q0 -1.140625 -0.375 -1.625q-0.375 -0.46875 -0.875 -0.46875q-0.3125 0 -0.578125 0.1875q-0.265625 0.203125 -0.4375 0.640625q-0.09375 0.234375 -0.421875 1.4375q-0.453125 1.75 -0.75 2.4375q-0.296875 0.6875 -0.859375 1.078125q-0.5625 0.390625 -1.40625 0.390625q-0.828125 0 -1.546875 -0.484375q-0.71875 -0.46875 -1.125 -1.375q-0.390625 -0.90625 -0.390625 -2.046875q0 -1.875 0.78125 -2.875q0.78125 -0.984375 2.328125 -1.25zm0 9.328125l0.25 1.625q-0.96875 0.125 -1.5 0.75q-0.515625 0.625 -0.515625 1.75q0 1.125 0.453125 1.671875q0.46875 0.546875 1.09375 0.546875q0.546875 0 0.875 -0.484375q0.21875 -0.328125 0.546875 -1.671875q0.46875 -1.8125 0.796875 -2.515625q0.328125 -0.6875 0.90625 -1.046875q0.59375 -0.359375 1.3125 -0.359375q0.640625 0 1.1875 0.296875q0.5625 0.296875 0.921875 0.8125q0.28125 0.375 0.46875 1.03125q0.203125 0.671875 0.203125 1.421875q0 1.140625 -0.328125 2.0q-0.328125 0.859375 -0.890625 1.265625q-0.5625 0.421875 -1.5 0.578125l-0.21875 -1.609375q0.75 -0.109375 1.171875 -0.640625q0.421875 -0.515625 0.421875 -1.46875q0 -1.140625 -0.375 -1.625q-0.375 -0.46875 -0.875 -0.46875q-0.3125 0 -0.578125 0.1875q-0.265625 0.203125 -0.4375 0.640625q-0.09375 0.234375 -0.421875 1.4375q-0.453125 1.75 -0.75 2.4375q-0.296875 0.6875 -0.859375 1.078125q-0.5625 0.390625 -1.40625 0.390625q-0.828125 0 -1.546875 -0.484375q-0.71875 -0.46875 -1.125 -1.375q-0.390625 -0.90625 -0.390625 -2.046875q0 -1.875 0.78125 -2.875q0.78125 -0.984375 2.328125 -1.25z" fill-rule="nonzero"/></g></svg>